0
SECTION
2
HEADER
9
$ANGDIR
70
1
9
$AUNITS
70
0
9
$PROJECTNAME
1
HeatPress_cu_fixed
9
$TDCREATE
40
2460081.15801327
9
$INSUNITS
70
4
0
ENDSEC
0
SECTION
2
ENTITIES
0
POLYLINE
66
1
8
outline
10
0.0
20
0.0
30
0.0
70
1
0
VERTEX
8
0
10
0
20
0
30
0
0
VERTEX
8
0
10
107.95
20
0
30
0
0
VERTEX
8
0
10
107.95
20
62.230000000000004
30
0
0
VERTEX
8
0
10
0
20
62.230000000000004
30
0
0
VERTEX
8
0
10
0
20
0
30
0
0
SEQEND
0
POLYLINE
66
1
8
holes
10
0.0
20
0.0
30
0.0
70
1
0
VERTEX
8
0
10
95.12
20
50.760000000000005
30
0
0
VERTEX
8
0
10
97.92
20
50.760000000000005
30
0
0
VERTEX
8
0
10
97.92
20
51.760000000000005
30
0
0
VERTEX
8
0
10
95.12
20
51.760000000000005
30
0
0
VERTEX
8
0
10
95.12
20
50.760000000000005
30
0
0
SEQEND
0
POLYLINE
66
1
8
holes
10
0.0
20
0.0
30
0.0
70
1
0
VERTEX
8
0
10
91.22
20
46.86
30
0
0
VERTEX
8
0
10
92.22
20
46.86
30
0
0
VERTEX
8
0
10
92.22
20
49.660000000000004
30
0
0
VERTEX
8
0
10
91.22
20
49.660000000000004
30
0
0
VERTEX
8
0
10
91.22
20
46.86
30
0
0
SEQEND
0
POLYLINE
66
1
8
holes
10
0.0
20
0.0
30
0.0
70
1
0
VERTEX
8
0
10
94.87
20
44.660000000000004
30
0
0
VERTEX
8
0
10
98.17
20
44.660000000000004
30
0
0
VERTEX
8
0
10
98.17
20
45.660000000000004
30
0
0
VERTEX
8
0
10
94.87
20
45.660000000000004
30
0
0
VERTEX
8
0
10
94.87
20
44.660000000000004
30
0
0
SEQEND
0
POLYLINE
66
1
8
holes
10
0.0
20
0.0
30
0.0
70
1
0
VERTEX
8
0
10
5.559996875
20
58.3627125
30
0
0
VERTEX
8
0
10
5.552503125
20
58.248378125
30
0
0
VERTEX
8
0
10
5.537546875
20
58.13478125
30
0
0
VERTEX
8
0
10
5.51519375
20
58.022403125000004
30
0
0
VERTEX
8
0
10
5.4855406250000005
20
57.91173125
30
0
0
VERTEX
8
0
10
5.448709375
20
57.803234375
30
0
0
VERTEX
8
0
10
5.4048625
20
57.697378125
30
0
0
VERTEX
8
0
10
5.3541875
20
57.594615625
30
0
0
VERTEX
8
0
10
5.296896875
20
57.4953875
30
0
0
VERTEX
8
0
10
5.2332406250000005
20
57.400118750000004
30
0
0
VERTEX
8
0
10
5.1634906250000006
20
57.30921875
30
0
0
VERTEX
8
0
10
5.08794375
20
57.223075
30
0
0
VERTEX
8
0
10
5.006925
20
57.14205625
30
0
0
VERTEX
8
0
10
4.92078125
20
57.066509375
30
0
0
VERTEX
8
0
10
4.829881250000001
20
56.996759375
30
0
0
VERTEX
8
0
10
4.7346125
20
56.933103125
30
0
0
VERTEX
8
0
10
4.635384375
20
56.8758125
30
0
0
VERTEX
8
0
10
4.532621875
20
56.825137500000004
30
0
0
VERTEX
8
0
10
4.426765625
20
56.781290625000004
30
0
0
VERTEX
8
0
10
4.3182687500000005
20
56.744459375000005
30
0
0
VERTEX
8
0
10
4.207596875
20
56.71480625
30
0
0
VERTEX
8
0
10
4.09521875
20
56.692453125
30
0
0
VERTEX
8
0
10
3.981621875
20
56.677496875
30
0
0
VERTEX
8
0
10
3.8672875
20
56.670003125
30
0
0
VERTEX
8
0
10
3.7527125000000003
20
56.670003125
30
0
0
VERTEX
8
0
10
3.638378125
20
56.677496875
30
0
0
VERTEX
8
0
10
3.52478125
20
56.692453125
30
0
0
VERTEX
8
0
10
3.412403125
20
56.71480625
30
0
0
VERTEX
8
0
10
3.30173125
20
56.744459375000005
30
0
0
VERTEX
8
0
10
3.1932343750000003
20
56.781290625000004
30
0
0
VERTEX
8
0
10
3.0873781250000003
20
56.825137500000004
30
0
0
VERTEX
8
0
10
2.984615625
20
56.8758125
30
0
0
VERTEX
8
0
10
2.8853875
20
56.933103125
30
0
0
VERTEX
8
0
10
2.79011875
20
56.996759375
30
0
0
VERTEX
8
0
10
2.69921875
20
57.066509375
30
0
0
VERTEX
8
0
10
2.6130750000000003
20
57.14205625
30
0
0
VERTEX
8
0
10
2.53205625
20
57.223075
30
0
0
VERTEX
8
0
10
2.456509375
20
57.30921875
30
0
0
VERTEX
8
0
10
2.386759375
20
57.400118750000004
30
0
0
VERTEX
8
0
10
2.3231031250000003
20
57.4953875
30
0
0
VERTEX
8
0
10
2.2658125
20
57.594615625
30
0
0
VERTEX
8
0
10
2.2151375
20
57.697378125
30
0
0
VERTEX
8
0
10
2.171290625
20
57.803234375
30
0
0
VERTEX
8
0
10
2.134459375
20
57.91173125
30
0
0
VERTEX
8
0
10
2.10480625
20
58.022403125000004
30
0
0
VERTEX
8
0
10
2.0824531250000002
20
58.13478125
30
0
0
VERTEX
8
0
10
2.0674968750000002
20
58.248378125
30
0
0
VERTEX
8
0
10
2.060003125
20
58.3627125
30
0
0
VERTEX
8
0
10
2.060003125
20
58.4772875
30
0
0
VERTEX
8
0
10
2.0674968750000002
20
58.591621875
30
0
0
VERTEX
8
0
10
2.0824531250000002
20
58.70521875
30
0
0
VERTEX
8
0
10
2.10480625
20
58.817596875
30
0
0
VERTEX
8
0
10
2.134459375
20
58.92826875
30
0
0
VERTEX
8
0
10
2.171290625
20
59.036765625
30
0
0
VERTEX
8
0
10
2.2151375
20
59.142621875
30
0
0
VERTEX
8
0
10
2.2658125
20
59.245384375
30
0
0
VERTEX
8
0
10
2.3231031250000003
20
59.344612500000004
30
0
0
VERTEX
8
0
10
2.386759375
20
59.439881250000006
30
0
0
VERTEX
8
0
10
2.456509375
20
59.530781250000004
30
0
0
VERTEX
8
0
10
2.53205625
20
59.616925
30
0
0
VERTEX
8
0
10
2.6130750000000003
20
59.69794375
30
0
0
VERTEX
8
0
10
2.69921875
20
59.773490625
30
0
0
VERTEX
8
0
10
2.79011875
20
59.843240625
30
0
0
VERTEX
8
0
10
2.8853875
20
59.906896875
30
0
0
VERTEX
8
0
10
2.984615625
20
59.9641875
30
0
0
VERTEX
8
0
10
3.0873781250000003
20
60.0148625
30
0
0
VERTEX
8
0
10
3.1932343750000003
20
60.058709375
30
0
0
VERTEX
8
0
10
3.30173125
20
60.095540625000005
30
0
0
VERTEX
8
0
10
3.412403125
20
60.12519375
30
0
0
VERTEX
8
0
10
3.52478125
20
60.147546875
30
0
0
VERTEX
8
0
10
3.638378125
20
60.162503125
30
0
0
VERTEX
8
0
10
3.7527125000000003
20
60.169996875
30
0
0
VERTEX
8
0
10
3.8672875
20
60.169996875
30
0
0
VERTEX
8
0
10
3.981621875
20
60.162503125
30
0
0
VERTEX
8
0
10
4.09521875
20
60.147546875
30
0
0
VERTEX
8
0
10
4.207596875
20
60.12519375
30
0
0
VERTEX
8
0
10
4.3182687500000005
20
60.095540625000005
30
0
0
VERTEX
8
0
10
4.426765625
20
60.058709375
30
0
0
VERTEX
8
0
10
4.532621875
20
60.0148625
30
0
0
VERTEX
8
0
10
4.635384375
20
59.9641875
30
0
0
VERTEX
8
0
10
4.7346125
20
59.906896875
30
0
0
VERTEX
8
0
10
4.829881250000001
20
59.843240625
30
0
0
VERTEX
8
0
10
4.92078125
20
59.773490625
30
0
0
VERTEX
8
0
10
5.006925
20
59.69794375
30
0
0
VERTEX
8
0
10
5.08794375
20
59.616925
30
0
0
VERTEX
8
0
10
5.1634906250000006
20
59.530781250000004
30
0
0
VERTEX
8
0
10
5.2332406250000005
20
59.439881250000006
30
0
0
VERTEX
8
0
10
5.296896875
20
59.344612500000004
30
0
0
VERTEX
8
0
10
5.3541875
20
59.245384375
30
0
0
VERTEX
8
0
10
5.4048625
20
59.142621875
30
0
0
VERTEX
8
0
10
5.448709375
20
59.036765625
30
0
0
VERTEX
8
0
10
5.4855406250000005
20
58.92826875
30
0
0
VERTEX
8
0
10
5.51519375
20
58.817596875
30
0
0
VERTEX
8
0
10
5.537546875
20
58.70521875
30
0
0
VERTEX
8
0
10
5.552503125
20
58.591621875
30
0
0
VERTEX
8
0
10
5.559996875
20
58.4772875
30
0
0
VERTEX
8
0
10
5.559996875
20
58.3627125
30
0
0
SEQEND
0
POLYLINE
66
1
8
holes
10
0.0
20
0.0
30
0.0
70
1
0
VERTEX
8
0
10
105.88999687500001
20
3.7527125000000003
30
0
0
VERTEX
8
0
10
105.882503125
20
3.638378125
30
0
0
VERTEX
8
0
10
105.867546875
20
3.52478125
30
0
0
VERTEX
8
0
10
105.84519375
20
3.412403125
30
0
0
VERTEX
8
0
10
105.81554062500001
20
3.30173125
30
0
0
VERTEX
8
0
10
105.778709375
20
3.1932343750000003
30
0
0
VERTEX
8
0
10
105.7348625
20
3.0873781250000003
30
0
0
VERTEX
8
0
10
105.68418750000001
20
2.984615625
30
0
0
VERTEX
8
0
10
105.626896875
20
2.8853875
30
0
0
VERTEX
8
0
10
105.563240625
20
2.79011875
30
0
0
VERTEX
8
0
10
105.493490625
20
2.69921875
30
0
0
VERTEX
8
0
10
105.41794375
20
2.6130750000000003
30
0
0
VERTEX
8
0
10
105.33692500000001
20
2.53205625
30
0
0
VERTEX
8
0
10
105.25078125
20
2.456509375
30
0
0
VERTEX
8
0
10
105.15988125
20
2.386759375
30
0
0
VERTEX
8
0
10
105.06461250000001
20
2.3231031250000003
30
0
0
VERTEX
8
0
10
104.965384375
20
2.2658125
30
0
0
VERTEX
8
0
10
104.862621875
20
2.2151375
30
0
0
VERTEX
8
0
10
104.756765625
20
2.171290625
30
0
0
VERTEX
8
0
10
104.64826875
20
2.134459375
30
0
0
VERTEX
8
0
10
104.537596875
20
2.10480625
30
0
0
VERTEX
8
0
10
104.42521875
20
2.0824531250000002
30
0
0
VERTEX
8
0
10
104.311621875
20
2.0674968750000002
30
0
0
VERTEX
8
0
10
104.1972875
20
2.060003125
30
0
0
VERTEX
8
0
10
104.0827125
20
2.060003125
30
0
0
VERTEX
8
0
10
103.968378125
20
2.0674968750000002
30
0
0
VERTEX
8
0
10
103.85478125
20
2.0824531250000002
30
0
0
VERTEX
8
0
10
103.74240312500001
20
2.10480625
30
0
0
VERTEX
8
0
10
103.63173125
20
2.134459375
30
0
0
VERTEX
8
0
10
103.523234375
20
2.171290625
30
0
0
VERTEX
8
0
10
103.417378125
20
2.2151375
30
0
0
VERTEX
8
0
10
103.314615625
20
2.2658125
30
0
0
VERTEX
8
0
10
103.2153875
20
2.3231031250000003
30
0
0
VERTEX
8
0
10
103.12011875
20
2.386759375
30
0
0
VERTEX
8
0
10
103.02921875
20
2.456509375
30
0
0
VERTEX
8
0
10
102.94307500000001
20
2.53205625
30
0
0
VERTEX
8
0
10
102.86205625000001
20
2.6130750000000003
30
0
0
VERTEX
8
0
10
102.78650937500001
20
2.69921875
30
0
0
VERTEX
8
0
10
102.71675937500001
20
2.79011875
30
0
0
VERTEX
8
0
10
102.653103125
20
2.8853875
30
0
0
VERTEX
8
0
10
102.59581250000001
20
2.984615625
30
0
0
VERTEX
8
0
10
102.54513750000001
20
3.0873781250000003
30
0
0
VERTEX
8
0
10
102.50129062500001
20
3.1932343750000003
30
0
0
VERTEX
8
0
10
102.464459375
20
3.30173125
30
0
0
VERTEX
8
0
10
102.43480625000001
20
3.412403125
30
0
0
VERTEX
8
0
10
102.412453125
20
3.52478125
30
0
0
VERTEX
8
0
10
102.397496875
20
3.638378125
30
0
0
VERTEX
8
0
10
102.390003125
20
3.7527125000000003
30
0
0
VERTEX
8
0
10
102.390003125
20
3.8672875
30
0
0
VERTEX
8
0
10
102.397496875
20
3.981621875
30
0
0
VERTEX
8
0
10
102.412453125
20
4.09521875
30
0
0
VERTEX
8
0
10
102.43480625000001
20
4.207596875
30
0
0
VERTEX
8
0
10
102.464459375
20
4.3182687500000005
30
0
0
VERTEX
8
0
10
102.50129062500001
20
4.426765625
30
0
0
VERTEX
8
0
10
102.54513750000001
20
4.532621875
30
0
0
VERTEX
8
0
10
102.59581250000001
20
4.635384375
30
0
0
VERTEX
8
0
10
102.653103125
20
4.7346125
30
0
0
VERTEX
8
0
10
102.71675937500001
20
4.829881250000001
30
0
0
VERTEX
8
0
10
102.78650937500001
20
4.92078125
30
0
0
VERTEX
8
0
10
102.86205625000001
20
5.006925
30
0
0
VERTEX
8
0
10
102.94307500000001
20
5.08794375
30
0
0
VERTEX
8
0
10
103.02921875
20
5.1634906250000006
30
0
0
VERTEX
8
0
10
103.12011875
20
5.2332406250000005
30
0
0
VERTEX
8
0
10
103.2153875
20
5.296896875
30
0
0
VERTEX
8
0
10
103.314615625
20
5.3541875
30
0
0
VERTEX
8
0
10
103.417378125
20
5.4048625
30
0
0
VERTEX
8
0
10
103.523234375
20
5.448709375
30
0
0
VERTEX
8
0
10
103.63173125
20
5.4855406250000005
30
0
0
VERTEX
8
0
10
103.74240312500001
20
5.51519375
30
0
0
VERTEX
8
0
10
103.85478125
20
5.537546875
30
0
0
VERTEX
8
0
10
103.968378125
20
5.552503125
30
0
0
VERTEX
8
0
10
104.0827125
20
5.559996875
30
0
0
VERTEX
8
0
10
104.1972875
20
5.559996875
30
0
0
VERTEX
8
0
10
104.311621875
20
5.552503125
30
0
0
VERTEX
8
0
10
104.42521875
20
5.537546875
30
0
0
VERTEX
8
0
10
104.537596875
20
5.51519375
30
0
0
VERTEX
8
0
10
104.64826875
20
5.4855406250000005
30
0
0
VERTEX
8
0
10
104.756765625
20
5.448709375
30
0
0
VERTEX
8
0
10
104.862621875
20
5.4048625
30
0
0
VERTEX
8
0
10
104.965384375
20
5.3541875
30
0
0
VERTEX
8
0
10
105.06461250000001
20
5.296896875
30
0
0
VERTEX
8
0
10
105.15988125
20
5.2332406250000005
30
0
0
VERTEX
8
0
10
105.25078125
20
5.1634906250000006
30
0
0
VERTEX
8
0
10
105.33692500000001
20
5.08794375
30
0
0
VERTEX
8
0
10
105.41794375
20
5.006925
30
0
0
VERTEX
8
0
10
105.493490625
20
4.92078125
30
0
0
VERTEX
8
0
10
105.563240625
20
4.829881250000001
30
0
0
VERTEX
8
0
10
105.626896875
20
4.7346125
30
0
0
VERTEX
8
0
10
105.68418750000001
20
4.635384375
30
0
0
VERTEX
8
0
10
105.7348625
20
4.532621875
30
0
0
VERTEX
8
0
10
105.778709375
20
4.426765625
30
0
0
VERTEX
8
0
10
105.81554062500001
20
4.3182687500000005
30
0
0
VERTEX
8
0
10
105.84519375
20
4.207596875
30
0
0
VERTEX
8
0
10
105.867546875
20
4.09521875
30
0
0
VERTEX
8
0
10
105.882503125
20
3.981621875
30
0
0
VERTEX
8
0
10
105.88999687500001
20
3.8672875
30
0
0
VERTEX
8
0
10
105.88999687500001
20
3.7527125000000003
30
0
0
SEQEND
0
POLYLINE
66
1
8
holes
10
0.0
20
0.0
30
0.0
70
1
0
VERTEX
8
0
10
5.559996875
20
3.7527125000000003
30
0
0
VERTEX
8
0
10
5.552503125
20
3.638378125
30
0
0
VERTEX
8
0
10
5.537546875
20
3.52478125
30
0
0
VERTEX
8
0
10
5.51519375
20
3.412403125
30
0
0
VERTEX
8
0
10
5.4855406250000005
20
3.30173125
30
0
0
VERTEX
8
0
10
5.448709375
20
3.1932343750000003
30
0
0
VERTEX
8
0
10
5.4048625
20
3.0873781250000003
30
0
0
VERTEX
8
0
10
5.3541875
20
2.984615625
30
0
0
VERTEX
8
0
10
5.296896875
20
2.8853875
30
0
0
VERTEX
8
0
10
5.2332406250000005
20
2.79011875
30
0
0
VERTEX
8
0
10
5.1634906250000006
20
2.69921875
30
0
0
VERTEX
8
0
10
5.08794375
20
2.6130750000000003
30
0
0
VERTEX
8
0
10
5.006925
20
2.53205625
30
0
0
VERTEX
8
0
10
4.92078125
20
2.456509375
30
0
0
VERTEX
8
0
10
4.829881250000001
20
2.386759375
30
0
0
VERTEX
8
0
10
4.7346125
20
2.3231031250000003
30
0
0
VERTEX
8
0
10
4.635384375
20
2.2658125
30
0
0
VERTEX
8
0
10
4.532621875
20
2.2151375
30
0
0
VERTEX
8
0
10
4.426765625
20
2.171290625
30
0
0
VERTEX
8
0
10
4.3182687500000005
20
2.134459375
30
0
0
VERTEX
8
0
10
4.207596875
20
2.10480625
30
0
0
VERTEX
8
0
10
4.09521875
20
2.0824531250000002
30
0
0
VERTEX
8
0
10
3.981621875
20
2.0674968750000002
30
0
0
VERTEX
8
0
10
3.8672875
20
2.060003125
30
0
0
VERTEX
8
0
10
3.7527125000000003
20
2.060003125
30
0
0
VERTEX
8
0
10
3.638378125
20
2.0674968750000002
30
0
0
VERTEX
8
0
10
3.52478125
20
2.0824531250000002
30
0
0
VERTEX
8
0
10
3.412403125
20
2.10480625
30
0
0
VERTEX
8
0
10
3.30173125
20
2.134459375
30
0
0
VERTEX
8
0
10
3.1932343750000003
20
2.171290625
30
0
0
VERTEX
8
0
10
3.0873781250000003
20
2.2151375
30
0
0
VERTEX
8
0
10
2.984615625
20
2.2658125
30
0
0
VERTEX
8
0
10
2.8853875
20
2.3231031250000003
30
0
0
VERTEX
8
0
10
2.79011875
20
2.386759375
30
0
0
VERTEX
8
0
10
2.69921875
20
2.456509375
30
0
0
VERTEX
8
0
10
2.6130750000000003
20
2.53205625
30
0
0
VERTEX
8
0
10
2.53205625
20
2.6130750000000003
30
0
0
VERTEX
8
0
10
2.456509375
20
2.69921875
30
0
0
VERTEX
8
0
10
2.386759375
20
2.79011875
30
0
0
VERTEX
8
0
10
2.3231031250000003
20
2.8853875
30
0
0
VERTEX
8
0
10
2.2658125
20
2.984615625
30
0
0
VERTEX
8
0
10
2.2151375
20
3.0873781250000003
30
0
0
VERTEX
8
0
10
2.171290625
20
3.1932343750000003
30
0
0
VERTEX
8
0
10
2.134459375
20
3.30173125
30
0
0
VERTEX
8
0
10
2.10480625
20
3.412403125
30
0
0
VERTEX
8
0
10
2.0824531250000002
20
3.52478125
30
0
0
VERTEX
8
0
10
2.0674968750000002
20
3.638378125
30
0
0
VERTEX
8
0
10
2.060003125
20
3.7527125000000003
30
0
0
VERTEX
8
0
10
2.060003125
20
3.8672875
30
0
0
VERTEX
8
0
10
2.0674968750000002
20
3.981621875
30
0
0
VERTEX
8
0
10
2.0824531250000002
20
4.09521875
30
0
0
VERTEX
8
0
10
2.10480625
20
4.207596875
30
0
0
VERTEX
8
0
10
2.134459375
20
4.3182687500000005
30
0
0
VERTEX
8
0
10
2.171290625
20
4.426765625
30
0
0
VERTEX
8
0
10
2.2151375
20
4.532621875
30
0
0
VERTEX
8
0
10
2.2658125
20
4.635384375
30
0
0
VERTEX
8
0
10
2.3231031250000003
20
4.7346125
30
0
0
VERTEX
8
0
10
2.386759375
20
4.829881250000001
30
0
0
VERTEX
8
0
10
2.456509375
20
4.92078125
30
0
0
VERTEX
8
0
10
2.53205625
20
5.006925
30
0
0
VERTEX
8
0
10
2.6130750000000003
20
5.08794375
30
0
0
VERTEX
8
0
10
2.69921875
20
5.1634906250000006
30
0
0
VERTEX
8
0
10
2.79011875
20
5.2332406250000005
30
0
0
VERTEX
8
0
10
2.8853875
20
5.296896875
30
0
0
VERTEX
8
0
10
2.984615625
20
5.3541875
30
0
0
VERTEX
8
0
10
3.0873781250000003
20
5.4048625
30
0
0
VERTEX
8
0
10
3.1932343750000003
20
5.448709375
30
0
0
VERTEX
8
0
10
3.30173125
20
5.4855406250000005
30
0
0
VERTEX
8
0
10
3.412403125
20
5.51519375
30
0
0
VERTEX
8
0
10
3.52478125
20
5.537546875
30
0
0
VERTEX
8
0
10
3.638378125
20
5.552503125
30
0
0
VERTEX
8
0
10
3.7527125000000003
20
5.559996875
30
0
0
VERTEX
8
0
10
3.8672875
20
5.559996875
30
0
0
VERTEX
8
0
10
3.981621875
20
5.552503125
30
0
0
VERTEX
8
0
10
4.09521875
20
5.537546875
30
0
0
VERTEX
8
0
10
4.207596875
20
5.51519375
30
0
0
VERTEX
8
0
10
4.3182687500000005
20
5.4855406250000005
30
0
0
VERTEX
8
0
10
4.426765625
20
5.448709375
30
0
0
VERTEX
8
0
10
4.532621875
20
5.4048625
30
0
0
VERTEX
8
0
10
4.635384375
20
5.3541875
30
0
0
VERTEX
8
0
10
4.7346125
20
5.296896875
30
0
0
VERTEX
8
0
10
4.829881250000001
20
5.2332406250000005
30
0
0
VERTEX
8
0
10
4.92078125
20
5.1634906250000006
30
0
0
VERTEX
8
0
10
5.006925
20
5.08794375
30
0
0
VERTEX
8
0
10
5.08794375
20
5.006925
30
0
0
VERTEX
8
0
10
5.1634906250000006
20
4.92078125
30
0
0
VERTEX
8
0
10
5.2332406250000005
20
4.829881250000001
30
0
0
VERTEX
8
0
10
5.296896875
20
4.7346125
30
0
0
VERTEX
8
0
10
5.3541875
20
4.635384375
30
0
0
VERTEX
8
0
10
5.4048625
20
4.532621875
30
0
0
VERTEX
8
0
10
5.448709375
20
4.426765625
30
0
0
VERTEX
8
0
10
5.4855406250000005
20
4.3182687500000005
30
0
0
VERTEX
8
0
10
5.51519375
20
4.207596875
30
0
0
VERTEX
8
0
10
5.537546875
20
4.09521875
30
0
0
VERTEX
8
0
10
5.552503125
20
3.981621875
30
0
0
VERTEX
8
0
10
5.559996875
20
3.8672875
30
0
0
VERTEX
8
0
10
5.559996875
20
3.7527125000000003
30
0
0
SEQEND
0
POLYLINE
66
1
8
holes
10
0.0
20
0.0
30
0.0
70
1
0
VERTEX
8
0
10
105.88999687500001
20
58.3627125
30
0
0
VERTEX
8
0
10
105.882503125
20
58.248378125
30
0
0
VERTEX
8
0
10
105.867546875
20
58.13478125
30
0
0
VERTEX
8
0
10
105.84519375
20
58.022403125000004
30
0
0
VERTEX
8
0
10
105.81554062500001
20
57.91173125
30
0
0
VERTEX
8
0
10
105.778709375
20
57.803234375
30
0
0
VERTEX
8
0
10
105.7348625
20
57.697378125
30
0
0
VERTEX
8
0
10
105.68418750000001
20
57.594615625
30
0
0
VERTEX
8
0
10
105.626896875
20
57.4953875
30
0
0
VERTEX
8
0
10
105.563240625
20
57.400118750000004
30
0
0
VERTEX
8
0
10
105.493490625
20
57.30921875
30
0
0
VERTEX
8
0
10
105.41794375
20
57.223075
30
0
0
VERTEX
8
0
10
105.33692500000001
20
57.14205625
30
0
0
VERTEX
8
0
10
105.25078125
20
57.066509375
30
0
0
VERTEX
8
0
10
105.15988125
20
56.996759375
30
0
0
VERTEX
8
0
10
105.06461250000001
20
56.933103125
30
0
0
VERTEX
8
0
10
104.965384375
20
56.8758125
30
0
0
VERTEX
8
0
10
104.862621875
20
56.825137500000004
30
0
0
VERTEX
8
0
10
104.756765625
20
56.781290625000004
30
0
0
VERTEX
8
0
10
104.64826875
20
56.744459375000005
30
0
0
VERTEX
8
0
10
104.537596875
20
56.71480625
30
0
0
VERTEX
8
0
10
104.42521875
20
56.692453125
30
0
0
VERTEX
8
0
10
104.311621875
20
56.677496875
30
0
0
VERTEX
8
0
10
104.1972875
20
56.670003125
30
0
0
VERTEX
8
0
10
104.0827125
20
56.670003125
30
0
0
VERTEX
8
0
10
103.968378125
20
56.677496875
30
0
0
VERTEX
8
0
10
103.85478125
20
56.692453125
30
0
0
VERTEX
8
0
10
103.74240312500001
20
56.71480625
30
0
0
VERTEX
8
0
10
103.63173125
20
56.744459375000005
30
0
0
VERTEX
8
0
10
103.523234375
20
56.781290625000004
30
0
0
VERTEX
8
0
10
103.417378125
20
56.825137500000004
30
0
0
VERTEX
8
0
10
103.314615625
20
56.8758125
30
0
0
VERTEX
8
0
10
103.2153875
20
56.933103125
30
0
0
VERTEX
8
0
10
103.12011875
20
56.996759375
30
0
0
VERTEX
8
0
10
103.02921875
20
57.066509375
30
0
0
VERTEX
8
0
10
102.94307500000001
20
57.14205625
30
0
0
VERTEX
8
0
10
102.86205625000001
20
57.223075
30
0
0
VERTEX
8
0
10
102.78650937500001
20
57.30921875
30
0
0
VERTEX
8
0
10
102.71675937500001
20
57.400118750000004
30
0
0
VERTEX
8
0
10
102.653103125
20
57.4953875
30
0
0
VERTEX
8
0
10
102.59581250000001
20
57.594615625
30
0
0
VERTEX
8
0
10
102.54513750000001
20
57.697378125
30
0
0
VERTEX
8
0
10
102.50129062500001
20
57.803234375
30
0
0
VERTEX
8
0
10
102.464459375
20
57.91173125
30
0
0
VERTEX
8
0
10
102.43480625000001
20
58.022403125000004
30
0
0
VERTEX
8
0
10
102.412453125
20
58.13478125
30
0
0
VERTEX
8
0
10
102.397496875
20
58.248378125
30
0
0
VERTEX
8
0
10
102.390003125
20
58.3627125
30
0
0
VERTEX
8
0
10
102.390003125
20
58.4772875
30
0
0
VERTEX
8
0
10
102.397496875
20
58.591621875
30
0
0
VERTEX
8
0
10
102.412453125
20
58.70521875
30
0
0
VERTEX
8
0
10
102.43480625000001
20
58.817596875
30
0
0
VERTEX
8
0
10
102.464459375
20
58.92826875
30
0
0
VERTEX
8
0
10
102.50129062500001
20
59.036765625
30
0
0
VERTEX
8
0
10
102.54513750000001
20
59.142621875
30
0
0
VERTEX
8
0
10
102.59581250000001
20
59.245384375
30
0
0
VERTEX
8
0
10
102.653103125
20
59.344612500000004
30
0
0
VERTEX
8
0
10
102.71675937500001
20
59.439881250000006
30
0
0
VERTEX
8
0
10
102.78650937500001
20
59.530781250000004
30
0
0
VERTEX
8
0
10
102.86205625000001
20
59.616925
30
0
0
VERTEX
8
0
10
102.94307500000001
20
59.69794375
30
0
0
VERTEX
8
0
10
103.02921875
20
59.773490625
30
0
0
VERTEX
8
0
10
103.12011875
20
59.843240625
30
0
0
VERTEX
8
0
10
103.2153875
20
59.906896875
30
0
0
VERTEX
8
0
10
103.314615625
20
59.9641875
30
0
0
VERTEX
8
0
10
103.417378125
20
60.0148625
30
0
0
VERTEX
8
0
10
103.523234375
20
60.058709375
30
0
0
VERTEX
8
0
10
103.63173125
20
60.095540625000005
30
0
0
VERTEX
8
0
10
103.74240312500001
20
60.12519375
30
0
0
VERTEX
8
0
10
103.85478125
20
60.147546875
30
0
0
VERTEX
8
0
10
103.968378125
20
60.162503125
30
0
0
VERTEX
8
0
10
104.0827125
20
60.169996875
30
0
0
VERTEX
8
0
10
104.1972875
20
60.169996875
30
0
0
VERTEX
8
0
10
104.311621875
20
60.162503125
30
0
0
VERTEX
8
0
10
104.42521875
20
60.147546875
30
0
0
VERTEX
8
0
10
104.537596875
20
60.12519375
30
0
0
VERTEX
8
0
10
104.64826875
20
60.095540625000005
30
0
0
VERTEX
8
0
10
104.756765625
20
60.058709375
30
0
0
VERTEX
8
0
10
104.862621875
20
60.0148625
30
0
0
VERTEX
8
0
10
104.965384375
20
59.9641875
30
0
0
VERTEX
8
0
10
105.06461250000001
20
59.906896875
30
0
0
VERTEX
8
0
10
105.15988125
20
59.843240625
30
0
0
VERTEX
8
0
10
105.25078125
20
59.773490625
30
0
0
VERTEX
8
0
10
105.33692500000001
20
59.69794375
30
0
0
VERTEX
8
0
10
105.41794375
20
59.616925
30
0
0
VERTEX
8
0
10
105.493490625
20
59.530781250000004
30
0
0
VERTEX
8
0
10
105.563240625
20
59.439881250000006
30
0
0
VERTEX
8
0
10
105.626896875
20
59.344612500000004
30
0
0
VERTEX
8
0
10
105.68418750000001
20
59.245384375
30
0
0
VERTEX
8
0
10
105.7348625
20
59.142621875
30
0
0
VERTEX
8
0
10
105.778709375
20
59.036765625
30
0
0
VERTEX
8
0
10
105.81554062500001
20
58.92826875
30
0
0
VERTEX
8
0
10
105.84519375
20
58.817596875
30
0
0
VERTEX
8
0
10
105.867546875
20
58.70521875
30
0
0
VERTEX
8
0
10
105.882503125
20
58.591621875
30
0
0
VERTEX
8
0
10
105.88999687500001
20
58.4772875
30
0
0
VERTEX
8
0
10
105.88999687500001
20
58.3627125
30
0
0
SEQEND
0
POLYLINE
66
1
8
holes
10
0.0
20
0.0
30
0.0
70
1
0
VERTEX
8
0
10
2.16
20
11.484015625000001
30
0
0
VERTEX
8
0
10
2.167065625
20
11.591815625
30
0
0
VERTEX
8
0
10
2.181165625
20
11.698921875
30
0
0
VERTEX
8
0
10
2.202240625
20
11.804875000000001
30
0
0
VERTEX
8
0
10
2.230203125
20
11.909225000000001
30
0
0
VERTEX
8
0
10
2.264928125
20
12.011525
30
0
0
VERTEX
8
0
10
2.30626875
20
12.111331250000001
30
0
0
VERTEX
8
0
10
2.35405
20
12.208221875000001
30
0
0
VERTEX
8
0
10
2.4080656250000003
20
12.301778125
30
0
0
VERTEX
8
0
10
2.468084375
20
12.391603125000001
30
0
0
VERTEX
8
0
10
2.53385
20
12.477309375
30
0
0
VERTEX
8
0
10
2.605078125
20
12.558531250000001
30
0
0
VERTEX
8
0
10
2.68146875
20
12.634921875
30
0
0
VERTEX
8
0
10
2.7626906250000003
20
12.706150000000001
30
0
0
VERTEX
8
0
10
2.848396875
20
12.771915625
30
0
0
VERTEX
8
0
10
2.938221875
20
12.831934375000001
30
0
0
VERTEX
8
0
10
3.031778125
20
12.885950000000001
30
0
0
VERTEX
8
0
10
3.12866875
20
12.933731250000001
30
0
0
VERTEX
8
0
10
3.228475
20
12.975071875000001
30
0
0
VERTEX
8
0
10
3.330775
20
13.009796875000001
30
0
0
VERTEX
8
0
10
3.435125
20
13.037759375
30
0
0
VERTEX
8
0
10
3.5410781250000003
20
13.058834375
30
0
0
VERTEX
8
0
10
3.648184375
20
13.072934375
30
0
0
VERTEX
8
0
10
3.755984375
20
13.08
30
0
0
VERTEX
8
0
10
3.8640156250000004
20
13.08
30
0
0
VERTEX
8
0
10
3.971815625
20
13.072934375
30
0
0
VERTEX
8
0
10
4.078921875
20
13.058834375
30
0
0
VERTEX
8
0
10
4.184875
20
13.037759375
30
0
0
VERTEX
8
0
10
4.289225
20
13.009796875000001
30
0
0
VERTEX
8
0
10
4.391525000000001
20
12.975071875000001
30
0
0
VERTEX
8
0
10
4.49133125
20
12.933731250000001
30
0
0
VERTEX
8
0
10
4.588221875
20
12.885950000000001
30
0
0
VERTEX
8
0
10
4.681778125
20
12.831934375000001
30
0
0
VERTEX
8
0
10
4.771603125
20
12.771915625
30
0
0
VERTEX
8
0
10
4.857309375
20
12.706150000000001
30
0
0
VERTEX
8
0
10
4.9385312500000005
20
12.634921875
30
0
0
VERTEX
8
0
10
5.014921875000001
20
12.558531250000001
30
0
0
VERTEX
8
0
10
5.08615
20
12.477309375
30
0
0
VERTEX
8
0
10
5.151915625
20
12.391603125000001
30
0
0
VERTEX
8
0
10
5.211934375
20
12.301778125
30
0
0
VERTEX
8
0
10
5.26595
20
12.208221875000001
30
0
0
VERTEX
8
0
10
5.31373125
20
12.111331250000001
30
0
0
VERTEX
8
0
10
5.355071875
20
12.011525
30
0
0
VERTEX
8
0
10
5.389796875
20
11.909225000000001
30
0
0
VERTEX
8
0
10
5.417759375
20
11.804875000000001
30
0
0
VERTEX
8
0
10
5.438834375
20
11.698921875
30
0
0
VERTEX
8
0
10
5.452934375
20
11.591815625
30
0
0
VERTEX
8
0
10
5.46
20
11.484015625000001
30
0
0
VERTEX
8
0
10
5.46
20
11.375984375
30
0
0
VERTEX
8
0
10
5.452934375
20
11.268184375
30
0
0
VERTEX
8
0
10
5.438834375
20
11.161078125000001
30
0
0
VERTEX
8
0
10
5.417759375
20
11.055125
30
0
0
VERTEX
8
0
10
5.389796875
20
10.950775
30
0
0
VERTEX
8
0
10
5.355071875
20
10.848475
30
0
0
VERTEX
8
0
10
5.31373125
20
10.74866875
30
0
0
VERTEX
8
0
10
5.26595
20
10.651778125
30
0
0
VERTEX
8
0
10
5.211934375
20
10.558221875000001
30
0
0
VERTEX
8
0
10
5.151915625
20
10.468396875
30
0
0
VERTEX
8
0
10
5.08615
20
10.382690625
30
0
0
VERTEX
8
0
10
5.014921875000001
20
10.30146875
30
0
0
VERTEX
8
0
10
4.9385312500000005
20
10.225078125000001
30
0
0
VERTEX
8
0
10
4.857309375
20
10.15385
30
0
0
VERTEX
8
0
10
4.771603125
20
10.088084375000001
30
0
0
VERTEX
8
0
10
4.681778125
20
10.028065625
30
0
0
VERTEX
8
0
10
4.588221875
20
9.97405
30
0
0
VERTEX
8
0
10
4.49133125
20
9.92626875
30
0
0
VERTEX
8
0
10
4.391525000000001
20
9.884928125
30
0
0
VERTEX
8
0
10
4.289225
20
9.850203125
30
0
0
VERTEX
8
0
10
4.184875
20
9.822240625000001
30
0
0
VERTEX
8
0
10
4.078921875
20
9.801165625000001
30
0
0
VERTEX
8
0
10
3.971815625
20
9.787065625
30
0
0
VERTEX
8
0
10
3.8640156250000004
20
9.780000000000001
30
0
0
VERTEX
8
0
10
3.755984375
20
9.780000000000001
30
0
0
VERTEX
8
0
10
3.648184375
20
9.787065625
30
0
0
VERTEX
8
0
10
3.5410781250000003
20
9.801165625000001
30
0
0
VERTEX
8
0
10
3.435125
20
9.822240625000001
30
0
0
VERTEX
8
0
10
3.330775
20
9.850203125
30
0
0
VERTEX
8
0
10
3.228475
20
9.884928125
30
0
0
VERTEX
8
0
10
3.12866875
20
9.92626875
30
0
0
VERTEX
8
0
10
3.031778125
20
9.97405
30
0
0
VERTEX
8
0
10
2.938221875
20
10.028065625
30
0
0
VERTEX
8
0
10
2.848396875
20
10.088084375000001
30
0
0
VERTEX
8
0
10
2.7626906250000003
20
10.15385
30
0
0
VERTEX
8
0
10
2.68146875
20
10.225078125000001
30
0
0
VERTEX
8
0
10
2.605078125
20
10.30146875
30
0
0
VERTEX
8
0
10
2.53385
20
10.382690625
30
0
0
VERTEX
8
0
10
2.468084375
20
10.468396875
30
0
0
VERTEX
8
0
10
2.4080656250000003
20
10.558221875000001
30
0
0
VERTEX
8
0
10
2.35405
20
10.651778125
30
0
0
VERTEX
8
0
10
2.30626875
20
10.74866875
30
0
0
VERTEX
8
0
10
2.264928125
20
10.848475
30
0
0
VERTEX
8
0
10
2.230203125
20
10.950775
30
0
0
VERTEX
8
0
10
2.202240625
20
11.055125
30
0
0
VERTEX
8
0
10
2.181165625
20
11.161078125000001
30
0
0
VERTEX
8
0
10
2.167065625
20
11.268184375
30
0
0
VERTEX
8
0
10
2.16
20
11.375984375
30
0
0
VERTEX
8
0
10
2.16
20
11.484015625000001
30
0
0
SEQEND
0
POLYLINE
66
1
8
holes
10
0.0
20
0.0
30
0.0
70
1
0
VERTEX
8
0
10
2.16
20
44.504015625
30
0
0
VERTEX
8
0
10
2.167065625
20
44.611815625000006
30
0
0
VERTEX
8
0
10
2.181165625
20
44.718921875
30
0
0
VERTEX
8
0
10
2.202240625
20
44.824875
30
0
0
VERTEX
8
0
10
2.230203125
20
44.929225
30
0
0
VERTEX
8
0
10
2.264928125
20
45.031525
30
0
0
VERTEX
8
0
10
2.30626875
20
45.13133125
30
0
0
VERTEX
8
0
10
2.35405
20
45.228221875
30
0
0
VERTEX
8
0
10
2.4080656250000003
20
45.321778125
30
0
0
VERTEX
8
0
10
2.468084375
20
45.411603125
30
0
0
VERTEX
8
0
10
2.53385
20
45.497309375
30
0
0
VERTEX
8
0
10
2.605078125
20
45.578531250000005
30
0
0
VERTEX
8
0
10
2.68146875
20
45.654921875
30
0
0
VERTEX
8
0
10
2.7626906250000003
20
45.726150000000004
30
0
0
VERTEX
8
0
10
2.848396875
20
45.791915625
30
0
0
VERTEX
8
0
10
2.938221875
20
45.851934375
30
0
0
VERTEX
8
0
10
3.031778125
20
45.905950000000004
30
0
0
VERTEX
8
0
10
3.12866875
20
45.953731250000004
30
0
0
VERTEX
8
0
10
3.228475
20
45.995071875
30
0
0
VERTEX
8
0
10
3.330775
20
46.029796875
30
0
0
VERTEX
8
0
10
3.435125
20
46.057759375
30
0
0
VERTEX
8
0
10
3.5410781250000003
20
46.078834375
30
0
0
VERTEX
8
0
10
3.648184375
20
46.092934375
30
0
0
VERTEX
8
0
10
3.755984375
20
46.1
30
0
0
VERTEX
8
0
10
3.8640156250000004
20
46.1
30
0
0
VERTEX
8
0
10
3.971815625
20
46.092934375
30
0
0
VERTEX
8
0
10
4.078921875
20
46.078834375
30
0
0
VERTEX
8
0
10
4.184875
20
46.057759375
30
0
0
VERTEX
8
0
10
4.289225
20
46.029796875
30
0
0
VERTEX
8
0
10
4.391525000000001
20
45.995071875
30
0
0
VERTEX
8
0
10
4.49133125
20
45.953731250000004
30
0
0
VERTEX
8
0
10
4.588221875
20
45.905950000000004
30
0
0
VERTEX
8
0
10
4.681778125
20
45.851934375
30
0
0
VERTEX
8
0
10
4.771603125
20
45.791915625
30
0
0
VERTEX
8
0
10
4.857309375
20
45.726150000000004
30
0
0
VERTEX
8
0
10
4.9385312500000005
20
45.654921875
30
0
0
VERTEX
8
0
10
5.014921875000001
20
45.578531250000005
30
0
0
VERTEX
8
0
10
5.08615
20
45.497309375
30
0
0
VERTEX
8
0
10
5.151915625
20
45.411603125
30
0
0
VERTEX
8
0
10
5.211934375
20
45.321778125
30
0
0
VERTEX
8
0
10
5.26595
20
45.228221875
30
0
0
VERTEX
8
0
10
5.31373125
20
45.13133125
30
0
0
VERTEX
8
0
10
5.355071875
20
45.031525
30
0
0
VERTEX
8
0
10
5.389796875
20
44.929225
30
0
0
VERTEX
8
0
10
5.417759375
20
44.824875
30
0
0
VERTEX
8
0
10
5.438834375
20
44.718921875
30
0
0
VERTEX
8
0
10
5.452934375
20
44.611815625000006
30
0
0
VERTEX
8
0
10
5.46
20
44.504015625
30
0
0
VERTEX
8
0
10
5.46
20
44.395984375000005
30
0
0
VERTEX
8
0
10
5.452934375
20
44.288184375
30
0
0
VERTEX
8
0
10
5.438834375
20
44.181078125
30
0
0
VERTEX
8
0
10
5.417759375
20
44.075125
30
0
0
VERTEX
8
0
10
5.389796875
20
43.970775
30
0
0
VERTEX
8
0
10
5.355071875
20
43.868475000000004
30
0
0
VERTEX
8
0
10
5.31373125
20
43.76866875
30
0
0
VERTEX
8
0
10
5.26595
20
43.671778125
30
0
0
VERTEX
8
0
10
5.211934375
20
43.578221875000004
30
0
0
VERTEX
8
0
10
5.151915625
20
43.488396875
30
0
0
VERTEX
8
0
10
5.08615
20
43.402690625000005
30
0
0
VERTEX
8
0
10
5.014921875000001
20
43.32146875
30
0
0
VERTEX
8
0
10
4.9385312500000005
20
43.245078125
30
0
0
VERTEX
8
0
10
4.857309375
20
43.17385
30
0
0
VERTEX
8
0
10
4.771603125
20
43.108084375000004
30
0
0
VERTEX
8
0
10
4.681778125
20
43.048065625
30
0
0
VERTEX
8
0
10
4.588221875
20
42.99405
30
0
0
VERTEX
8
0
10
4.49133125
20
42.94626875
30
0
0
VERTEX
8
0
10
4.391525000000001
20
42.904928125000005
30
0
0
VERTEX
8
0
10
4.289225
20
42.870203125
30
0
0
VERTEX
8
0
10
4.184875
20
42.842240625
30
0
0
VERTEX
8
0
10
4.078921875
20
42.821165625
30
0
0
VERTEX
8
0
10
3.971815625
20
42.807065625
30
0
0
VERTEX
8
0
10
3.8640156250000004
20
42.800000000000004
30
0
0
VERTEX
8
0
10
3.755984375
20
42.800000000000004
30
0
0
VERTEX
8
0
10
3.648184375
20
42.807065625
30
0
0
VERTEX
8
0
10
3.5410781250000003
20
42.821165625
30
0
0
VERTEX
8
0
10
3.435125
20
42.842240625
30
0
0
VERTEX
8
0
10
3.330775
20
42.870203125
30
0
0
VERTEX
8
0
10
3.228475
20
42.904928125000005
30
0
0
VERTEX
8
0
10
3.12866875
20
42.94626875
30
0
0
VERTEX
8
0
10
3.031778125
20
42.99405
30
0
0
VERTEX
8
0
10
2.938221875
20
43.048065625
30
0
0
VERTEX
8
0
10
2.848396875
20
43.108084375000004
30
0
0
VERTEX
8
0
10
2.7626906250000003
20
43.17385
30
0
0
VERTEX
8
0
10
2.68146875
20
43.245078125
30
0
0
VERTEX
8
0
10
2.605078125
20
43.32146875
30
0
0
VERTEX
8
0
10
2.53385
20
43.402690625000005
30
0
0
VERTEX
8
0
10
2.468084375
20
43.488396875
30
0
0
VERTEX
8
0
10
2.4080656250000003
20
43.578221875000004
30
0
0
VERTEX
8
0
10
2.35405
20
43.671778125
30
0
0
VERTEX
8
0
10
2.30626875
20
43.76866875
30
0
0
VERTEX
8
0
10
2.264928125
20
43.868475000000004
30
0
0
VERTEX
8
0
10
2.230203125
20
43.970775
30
0
0
VERTEX
8
0
10
2.202240625
20
44.075125
30
0
0
VERTEX
8
0
10
2.181165625
20
44.181078125
30
0
0
VERTEX
8
0
10
2.167065625
20
44.288184375
30
0
0
VERTEX
8
0
10
2.16
20
44.395984375000005
30
0
0
VERTEX
8
0
10
2.16
20
44.504015625
30
0
0
SEQEND
0
POLYLINE
66
1
8
holes
10
0.0
20
0.0
30
0.0
70
1
0
VERTEX
8
0
10
42.800000000000004
20
11.484015625000001
30
0
0
VERTEX
8
0
10
42.807065625
20
11.591815625
30
0
0
VERTEX
8
0
10
42.821165625
20
11.698921875
30
0
0
VERTEX
8
0
10
42.842240625
20
11.804875000000001
30
0
0
VERTEX
8
0
10
42.870203125
20
11.909225000000001
30
0
0
VERTEX
8
0
10
42.904928125000005
20
12.011525
30
0
0
VERTEX
8
0
10
42.94626875
20
12.111331250000001
30
0
0
VERTEX
8
0
10
42.99405
20
12.208221875000001
30
0
0
VERTEX
8
0
10
43.048065625
20
12.301778125
30
0
0
VERTEX
8
0
10
43.108084375000004
20
12.391603125000001
30
0
0
VERTEX
8
0
10
43.17385
20
12.477309375
30
0
0
VERTEX
8
0
10
43.245078125
20
12.558531250000001
30
0
0
VERTEX
8
0
10
43.32146875
20
12.634921875
30
0
0
VERTEX
8
0
10
43.402690625000005
20
12.706150000000001
30
0
0
VERTEX
8
0
10
43.488396875
20
12.771915625
30
0
0
VERTEX
8
0
10
43.578221875000004
20
12.831934375000001
30
0
0
VERTEX
8
0
10
43.671778125
20
12.885950000000001
30
0
0
VERTEX
8
0
10
43.76866875
20
12.933731250000001
30
0
0
VERTEX
8
0
10
43.868475000000004
20
12.975071875000001
30
0
0
VERTEX
8
0
10
43.970775
20
13.009796875000001
30
0
0
VERTEX
8
0
10
44.075125
20
13.037759375
30
0
0
VERTEX
8
0
10
44.181078125
20
13.058834375
30
0
0
VERTEX
8
0
10
44.288184375
20
13.072934375
30
0
0
VERTEX
8
0
10
44.395984375000005
20
13.08
30
0
0
VERTEX
8
0
10
44.504015625
20
13.08
30
0
0
VERTEX
8
0
10
44.611815625000006
20
13.072934375
30
0
0
VERTEX
8
0
10
44.718921875
20
13.058834375
30
0
0
VERTEX
8
0
10
44.824875
20
13.037759375
30
0
0
VERTEX
8
0
10
44.929225
20
13.009796875000001
30
0
0
VERTEX
8
0
10
45.031525
20
12.975071875000001
30
0
0
VERTEX
8
0
10
45.13133125
20
12.933731250000001
30
0
0
VERTEX
8
0
10
45.228221875
20
12.885950000000001
30
0
0
VERTEX
8
0
10
45.321778125
20
12.831934375000001
30
0
0
VERTEX
8
0
10
45.411603125
20
12.771915625
30
0
0
VERTEX
8
0
10
45.497309375
20
12.706150000000001
30
0
0
VERTEX
8
0
10
45.578531250000005
20
12.634921875
30
0
0
VERTEX
8
0
10
45.654921875
20
12.558531250000001
30
0
0
VERTEX
8
0
10
45.726150000000004
20
12.477309375
30
0
0
VERTEX
8
0
10
45.791915625
20
12.391603125000001
30
0
0
VERTEX
8
0
10
45.851934375
20
12.301778125
30
0
0
VERTEX
8
0
10
45.905950000000004
20
12.208221875000001
30
0
0
VERTEX
8
0
10
45.953731250000004
20
12.111331250000001
30
0
0
VERTEX
8
0
10
45.995071875
20
12.011525
30
0
0
VERTEX
8
0
10
46.029796875
20
11.909225000000001
30
0
0
VERTEX
8
0
10
46.057759375
20
11.804875000000001
30
0
0
VERTEX
8
0
10
46.078834375
20
11.698921875
30
0
0
VERTEX
8
0
10
46.092934375
20
11.591815625
30
0
0
VERTEX
8
0
10
46.1
20
11.484015625000001
30
0
0
VERTEX
8
0
10
46.1
20
11.375984375
30
0
0
VERTEX
8
0
10
46.092934375
20
11.268184375
30
0
0
VERTEX
8
0
10
46.078834375
20
11.161078125000001
30
0
0
VERTEX
8
0
10
46.057759375
20
11.055125
30
0
0
VERTEX
8
0
10
46.029796875
20
10.950775
30
0
0
VERTEX
8
0
10
45.995071875
20
10.848475
30
0
0
VERTEX
8
0
10
45.953731250000004
20
10.74866875
30
0
0
VERTEX
8
0
10
45.905950000000004
20
10.651778125
30
0
0
VERTEX
8
0
10
45.851934375
20
10.558221875000001
30
0
0
VERTEX
8
0
10
45.791915625
20
10.468396875
30
0
0
VERTEX
8
0
10
45.726150000000004
20
10.382690625
30
0
0
VERTEX
8
0
10
45.654921875
20
10.30146875
30
0
0
VERTEX
8
0
10
45.578531250000005
20
10.225078125000001
30
0
0
VERTEX
8
0
10
45.497309375
20
10.15385
30
0
0
VERTEX
8
0
10
45.411603125
20
10.088084375000001
30
0
0
VERTEX
8
0
10
45.321778125
20
10.028065625
30
0
0
VERTEX
8
0
10
45.228221875
20
9.97405
30
0
0
VERTEX
8
0
10
45.13133125
20
9.92626875
30
0
0
VERTEX
8
0
10
45.031525
20
9.884928125
30
0
0
VERTEX
8
0
10
44.929225
20
9.850203125
30
0
0
VERTEX
8
0
10
44.824875
20
9.822240625000001
30
0
0
VERTEX
8
0
10
44.718921875
20
9.801165625000001
30
0
0
VERTEX
8
0
10
44.611815625000006
20
9.787065625
30
0
0
VERTEX
8
0
10
44.504015625
20
9.780000000000001
30
0
0
VERTEX
8
0
10
44.395984375000005
20
9.780000000000001
30
0
0
VERTEX
8
0
10
44.288184375
20
9.787065625
30
0
0
VERTEX
8
0
10
44.181078125
20
9.801165625000001
30
0
0
VERTEX
8
0
10
44.075125
20
9.822240625000001
30
0
0
VERTEX
8
0
10
43.970775
20
9.850203125
30
0
0
VERTEX
8
0
10
43.868475000000004
20
9.884928125
30
0
0
VERTEX
8
0
10
43.76866875
20
9.92626875
30
0
0
VERTEX
8
0
10
43.671778125
20
9.97405
30
0
0
VERTEX
8
0
10
43.578221875000004
20
10.028065625
30
0
0
VERTEX
8
0
10
43.488396875
20
10.088084375000001
30
0
0
VERTEX
8
0
10
43.402690625000005
20
10.15385
30
0
0
VERTEX
8
0
10
43.32146875
20
10.225078125000001
30
0
0
VERTEX
8
0
10
43.245078125
20
10.30146875
30
0
0
VERTEX
8
0
10
43.17385
20
10.382690625
30
0
0
VERTEX
8
0
10
43.108084375000004
20
10.468396875
30
0
0
VERTEX
8
0
10
43.048065625
20
10.558221875000001
30
0
0
VERTEX
8
0
10
42.99405
20
10.651778125
30
0
0
VERTEX
8
0
10
42.94626875
20
10.74866875
30
0
0
VERTEX
8
0
10
42.904928125000005
20
10.848475
30
0
0
VERTEX
8
0
10
42.870203125
20
10.950775
30
0
0
VERTEX
8
0
10
42.842240625
20
11.055125
30
0
0
VERTEX
8
0
10
42.821165625
20
11.161078125000001
30
0
0
VERTEX
8
0
10
42.807065625
20
11.268184375
30
0
0
VERTEX
8
0
10
42.800000000000004
20
11.375984375
30
0
0
VERTEX
8
0
10
42.800000000000004
20
11.484015625000001
30
0
0
SEQEND
0
POLYLINE
66
1
8
holes
10
0.0
20
0.0
30
0.0
70
1
0
VERTEX
8
0
10
42.800000000000004
20
44.504015625
30
0
0
VERTEX
8
0
10
42.807065625
20
44.611815625000006
30
0
0
VERTEX
8
0
10
42.821165625
20
44.718921875
30
0
0
VERTEX
8
0
10
42.842240625
20
44.824875
30
0
0
VERTEX
8
0
10
42.870203125
20
44.929225
30
0
0
VERTEX
8
0
10
42.904928125000005
20
45.031525
30
0
0
VERTEX
8
0
10
42.94626875
20
45.13133125
30
0
0
VERTEX
8
0
10
42.99405
20
45.228221875
30
0
0
VERTEX
8
0
10
43.048065625
20
45.321778125
30
0
0
VERTEX
8
0
10
43.108084375000004
20
45.411603125
30
0
0
VERTEX
8
0
10
43.17385
20
45.497309375
30
0
0
VERTEX
8
0
10
43.245078125
20
45.578531250000005
30
0
0
VERTEX
8
0
10
43.32146875
20
45.654921875
30
0
0
VERTEX
8
0
10
43.402690625000005
20
45.726150000000004
30
0
0
VERTEX
8
0
10
43.488396875
20
45.791915625
30
0
0
VERTEX
8
0
10
43.578221875000004
20
45.851934375
30
0
0
VERTEX
8
0
10
43.671778125
20
45.905950000000004
30
0
0
VERTEX
8
0
10
43.76866875
20
45.953731250000004
30
0
0
VERTEX
8
0
10
43.868475000000004
20
45.995071875
30
0
0
VERTEX
8
0
10
43.970775
20
46.029796875
30
0
0
VERTEX
8
0
10
44.075125
20
46.057759375
30
0
0
VERTEX
8
0
10
44.181078125
20
46.078834375
30
0
0
VERTEX
8
0
10
44.288184375
20
46.092934375
30
0
0
VERTEX
8
0
10
44.395984375000005
20
46.1
30
0
0
VERTEX
8
0
10
44.504015625
20
46.1
30
0
0
VERTEX
8
0
10
44.611815625000006
20
46.092934375
30
0
0
VERTEX
8
0
10
44.718921875
20
46.078834375
30
0
0
VERTEX
8
0
10
44.824875
20
46.057759375
30
0
0
VERTEX
8
0
10
44.929225
20
46.029796875
30
0
0
VERTEX
8
0
10
45.031525
20
45.995071875
30
0
0
VERTEX
8
0
10
45.13133125
20
45.953731250000004
30
0
0
VERTEX
8
0
10
45.228221875
20
45.905950000000004
30
0
0
VERTEX
8
0
10
45.321778125
20
45.851934375
30
0
0
VERTEX
8
0
10
45.411603125
20
45.791915625
30
0
0
VERTEX
8
0
10
45.497309375
20
45.726150000000004
30
0
0
VERTEX
8
0
10
45.578531250000005
20
45.654921875
30
0
0
VERTEX
8
0
10
45.654921875
20
45.578531250000005
30
0
0
VERTEX
8
0
10
45.726150000000004
20
45.497309375
30
0
0
VERTEX
8
0
10
45.791915625
20
45.411603125
30
0
0
VERTEX
8
0
10
45.851934375
20
45.321778125
30
0
0
VERTEX
8
0
10
45.905950000000004
20
45.228221875
30
0
0
VERTEX
8
0
10
45.953731250000004
20
45.13133125
30
0
0
VERTEX
8
0
10
45.995071875
20
45.031525
30
0
0
VERTEX
8
0
10
46.029796875
20
44.929225
30
0
0
VERTEX
8
0
10
46.057759375
20
44.824875
30
0
0
VERTEX
8
0
10
46.078834375
20
44.718921875
30
0
0
VERTEX
8
0
10
46.092934375
20
44.611815625000006
30
0
0
VERTEX
8
0
10
46.1
20
44.504015625
30
0
0
VERTEX
8
0
10
46.1
20
44.395984375000005
30
0
0
VERTEX
8
0
10
46.092934375
20
44.288184375
30
0
0
VERTEX
8
0
10
46.078834375
20
44.181078125
30
0
0
VERTEX
8
0
10
46.057759375
20
44.075125
30
0
0
VERTEX
8
0
10
46.029796875
20
43.970775
30
0
0
VERTEX
8
0
10
45.995071875
20
43.868475000000004
30
0
0
VERTEX
8
0
10
45.953731250000004
20
43.76866875
30
0
0
VERTEX
8
0
10
45.905950000000004
20
43.671778125
30
0
0
VERTEX
8
0
10
45.851934375
20
43.578221875000004
30
0
0
VERTEX
8
0
10
45.791915625
20
43.488396875
30
0
0
VERTEX
8
0
10
45.726150000000004
20
43.402690625000005
30
0
0
VERTEX
8
0
10
45.654921875
20
43.32146875
30
0
0
VERTEX
8
0
10
45.578531250000005
20
43.245078125
30
0
0
VERTEX
8
0
10
45.497309375
20
43.17385
30
0
0
VERTEX
8
0
10
45.411603125
20
43.108084375000004
30
0
0
VERTEX
8
0
10
45.321778125
20
43.048065625
30
0
0
VERTEX
8
0
10
45.228221875
20
42.99405
30
0
0
VERTEX
8
0
10
45.13133125
20
42.94626875
30
0
0
VERTEX
8
0
10
45.031525
20
42.904928125000005
30
0
0
VERTEX
8
0
10
44.929225
20
42.870203125
30
0
0
VERTEX
8
0
10
44.824875
20
42.842240625
30
0
0
VERTEX
8
0
10
44.718921875
20
42.821165625
30
0
0
VERTEX
8
0
10
44.611815625000006
20
42.807065625
30
0
0
VERTEX
8
0
10
44.504015625
20
42.800000000000004
30
0
0
VERTEX
8
0
10
44.395984375000005
20
42.800000000000004
30
0
0
VERTEX
8
0
10
44.288184375
20
42.807065625
30
0
0
VERTEX
8
0
10
44.181078125
20
42.821165625
30
0
0
VERTEX
8
0
10
44.075125
20
42.842240625
30
0
0
VERTEX
8
0
10
43.970775
20
42.870203125
30
0
0
VERTEX
8
0
10
43.868475000000004
20
42.904928125000005
30
0
0
VERTEX
8
0
10
43.76866875
20
42.94626875
30
0
0
VERTEX
8
0
10
43.671778125
20
42.99405
30
0
0
VERTEX
8
0
10
43.578221875000004
20
43.048065625
30
0
0
VERTEX
8
0
10
43.488396875
20
43.108084375000004
30
0
0
VERTEX
8
0
10
43.402690625000005
20
43.17385
30
0
0
VERTEX
8
0
10
43.32146875
20
43.245078125
30
0
0
VERTEX
8
0
10
43.245078125
20
43.32146875
30
0
0
VERTEX
8
0
10
43.17385
20
43.402690625000005
30
0
0
VERTEX
8
0
10
43.108084375000004
20
43.488396875
30
0
0
VERTEX
8
0
10
43.048065625
20
43.578221875000004
30
0
0
VERTEX
8
0
10
42.99405
20
43.671778125
30
0
0
VERTEX
8
0
10
42.94626875
20
43.76866875
30
0
0
VERTEX
8
0
10
42.904928125000005
20
43.868475000000004
30
0
0
VERTEX
8
0
10
42.870203125
20
43.970775
30
0
0
VERTEX
8
0
10
42.842240625
20
44.075125
30
0
0
VERTEX
8
0
10
42.821165625
20
44.181078125
30
0
0
VERTEX
8
0
10
42.807065625
20
44.288184375
30
0
0
VERTEX
8
0
10
42.800000000000004
20
44.395984375000005
30
0
0
VERTEX
8
0
10
42.800000000000004
20
44.504015625
30
0
0
SEQEND
0
POLYLINE
66
1
8
1_copper
10
0.0
20
0.0
30
0.0
70
1
0
VERTEX
8
0
10
46.744
20
40.124
30
0
0
VERTEX
8
0
10
45.236000000000004
20
40.124
30
0
0
VERTEX
8
0
10
45.236000000000004
20
38.616
30
0
0
VERTEX
8
0
10
46.744
20
38.616
30
0
0
SEQEND
0
POLYLINE
66
1
8
1_copper
10
0.0
20
0.0
30
0.0
70
1
0
VERTEX
8
0
10
46.744
20
37.584
30
0
0
VERTEX
8
0
10
45.236000000000004
20
37.584
30
0
0
VERTEX
8
0
10
45.236000000000004
20
36.076
30
0
0
VERTEX
8
0
10
46.744
20
36.076
30
0
0
SEQEND
0
POLYLINE
66
1
8
1_copper
10
0.0
20
0.0
30
0.0
70
1
0
VERTEX
8
0
10
46.744
20
35.044000000000004
30
0
0
VERTEX
8
0
10
45.236000000000004
20
35.044000000000004
30
0
0
VERTEX
8
0
10
45.236000000000004
20
33.536
30
0
0
VERTEX
8
0
10
46.744
20
33.536
30
0
0
SEQEND
0
POLYLINE
66
1
8
1_copper
10
0.0
20
0.0
30
0.0
70
1
0
VERTEX
8
0
10
46.744
20
22.344
30
0
0
VERTEX
8
0
10
45.236000000000004
20
22.344
30
0
0
VERTEX
8
0
10
45.236000000000004
20
20.836000000000002
30
0
0
VERTEX
8
0
10
46.744
20
20.836000000000002
30
0
0
SEQEND
0
POLYLINE
66
1
8
16_copper
10
0.0
20
0.0
30
0.0
70
1
0
VERTEX
8
0
10
46.744
20
40.124
30
0
0
VERTEX
8
0
10
45.236000000000004
20
40.124
30
0
0
VERTEX
8
0
10
45.236000000000004
20
38.616
30
0
0
VERTEX
8
0
10
46.744
20
38.616
30
0
0
SEQEND
0
POLYLINE
66
1
8
16_copper
10
0.0
20
0.0
30
0.0
70
1
0
VERTEX
8
0
10
46.744
20
37.584
30
0
0
VERTEX
8
0
10
45.236000000000004
20
37.584
30
0
0
VERTEX
8
0
10
45.236000000000004
20
36.076
30
0
0
VERTEX
8
0
10
46.744
20
36.076
30
0
0
SEQEND
0
POLYLINE
66
1
8
16_copper
10
0.0
20
0.0
30
0.0
70
1
0
VERTEX
8
0
10
46.744
20
35.044000000000004
30
0
0
VERTEX
8
0
10
45.236000000000004
20
35.044000000000004
30
0
0
VERTEX
8
0
10
45.236000000000004
20
33.536
30
0
0
VERTEX
8
0
10
46.744
20
33.536
30
0
0
SEQEND
0
POLYLINE
66
1
8
16_copper
10
0.0
20
0.0
30
0.0
70
1
0
VERTEX
8
0
10
46.744
20
22.344
30
0
0
VERTEX
8
0
10
45.236000000000004
20
22.344
30
0
0
VERTEX
8
0
10
45.236000000000004
20
20.836000000000002
30
0
0
VERTEX
8
0
10
46.744
20
20.836000000000002
30
0
0
SEQEND
0
POLYLINE
66
1
8
1_copper
10
0.0
20
0.0
30
0.0
70
1
0
VERTEX
8
0
10
80.6704
20
39.09645625
30
0
0
VERTEX
8
0
10
80.6704
20
39.64354375
30
0
0
VERTEX
8
0
10
80.28354375
20
40.0304
30
0
0
VERTEX
8
0
10
79.73645625
20
40.0304
30
0
0
VERTEX
8
0
10
79.34960000000001
20
39.64354375
30
0
0
VERTEX
8
0
10
79.34960000000001
20
39.09645625
30
0
0
VERTEX
8
0
10
79.73645625
20
38.7096
30
0
0
VERTEX
8
0
10
80.28354375
20
38.7096
30
0
0
SEQEND
0
POLYLINE
66
1
8
16_copper
10
0.0
20
0.0
30
0.0
70
1
0
VERTEX
8
0
10
74.9379625
20
33.65539375
30
0
0
VERTEX
8
0
10
74.94592187500001
20
33.6552
30
0
42
0.17540035433691983
0
VERTEX
8
0
10
75.34852500000001
20
33.812440625
30
0
0
VERTEX
8
0
10
75.3790125
20
33.840987500000004
30
0
0
VERTEX
8
0
10
80.247625
20
38.7096
30
0
0
VERTEX
8
0
10
80.28354375
20
38.7096
30
0
0
VERTEX
8
0
10
80.6704
20
39.09645625
30
0
0
VERTEX
8
0
10
80.6704
20
39.64354375
30
0
0
VERTEX
8
0
10
80.28354375
20
40.0304
30
0
0
VERTEX
8
0
10
79.73645625
20
40.0304
30
0
0
VERTEX
8
0
10
79.34960000000001
20
39.64354375
30
0
0
VERTEX
8
0
10
79.34960000000001
20
39.607625
30
0
0
VERTEX
8
0
10
74.66697500000001
20
34.925000000000004
30
0
0
VERTEX
8
0
10
71.12
20
34.925000000000004
30
0
0
VERTEX
8
0
10
71.0571
20
34.921878125
30
0
42
0.9207235343935894
0
VERTEX
8
0
10
71.07825625000001
20
33.656375000000004
30
0
0
VERTEX
8
0
10
71.12
20
33.655
30
0
0
VERTEX
8
0
10
74.93
20
33.655
30
0
0
SEQEND
0
POLYLINE
66
1
8
1_copper
10
0.0
20
0.0
30
0.0
70
1
0
VERTEX
8
0
10
97.65065
20
50.267609375
30
0
42
0.9163307801196574
0
VERTEX
8
0
10
97.5636625
20
52.260000000000005
30
0
0
VERTEX
8
0
10
95.4763375
20
52.260000000000005
30
0
0
VERTEX
8
0
10
95.38935000000001
20
52.252390625000004
30
0
42
0.9163307801196574
0
VERTEX
8
0
10
95.4763375
20
50.260000000000005
30
0
0
VERTEX
8
0
10
97.5636625
20
50.260000000000005
30
0
0
SEQEND
0
POLYLINE
66
1
8
1_copper
10
0.0
20
0.0
30
0.0
70
1
0
VERTEX
8
0
10
62.34076875
20
48.0292625
30
0
42
0.3578058410891132
0
VERTEX
8
0
10
62.984
20
48.738959375
30
0
0
VERTEX
8
0
10
62.984
20
50.321040625
30
0
0
VERTEX
8
0
10
62.976737500000006
20
50.394768750000004
30
0
42
0.906347362423788
0
VERTEX
8
0
10
61.476000000000006
20
50.321040625
30
0
0
VERTEX
8
0
10
61.476000000000006
20
48.738959375
30
0
0
VERTEX
8
0
10
61.4832625
20
48.665231250000005
30
0
42
0.38574191329236746
0
VERTEX
8
0
10
62.267040625
20
48.022000000000006
30
0
0
SEQEND
0
POLYLINE
66
1
8
1_copper
10
0.0
20
0.0
30
0.0
70
1
0
VERTEX
8
0
10
91.85065
20
46.267609375
30
0
42
0.36396999178744105
0
VERTEX
8
0
10
92.72
20
47.2163375
30
0
0
VERTEX
8
0
10
92.72
20
49.3036625
30
0
0
VERTEX
8
0
10
92.712390625
20
49.39065
30
0
42
0.9163307801196574
0
VERTEX
8
0
10
90.72
20
49.3036625
30
0
0
VERTEX
8
0
10
90.72
20
47.2163375
30
0
0
VERTEX
8
0
10
90.727609375
20
47.12935
30
0
42
0.3888793799364599
0
VERTEX
8
0
10
91.76366250000001
20
46.260000000000005
30
0
0
SEQEND
0
POLYLINE
66
1
8
1_copper
10
0.0
20
0.0
30
0.0
70
1
0
VERTEX
8
0
10
84.68476875
20
23.3832625
30
0
42
0.906347362423788
0
VERTEX
8
0
10
84.611040625
20
24.884
30
0
0
VERTEX
8
0
10
83.028959375
20
24.884
30
0
0
VERTEX
8
0
10
82.95523125
20
24.8767375
30
0
42
0.906347362423788
0
VERTEX
8
0
10
83.028959375
20
23.376
30
0
0
VERTEX
8
0
10
84.611040625
20
23.376
30
0
0
SEQEND
0
POLYLINE
66
1
8
1_copper
10
0.0
20
0.0
30
0.0
70
1
0
VERTEX
8
0
10
46.744
20
17.264
30
0
0
VERTEX
8
0
10
45.236000000000004
20
17.264
30
0
0
VERTEX
8
0
10
45.236000000000004
20
15.756
30
0
0
VERTEX
8
0
10
46.744
20
15.756
30
0
0
SEQEND
0
POLYLINE
66
1
8
1_copper
10
0.0
20
0.0
30
0.0
70
1
0
VERTEX
8
0
10
84.4804
20
14.96645625
30
0
0
VERTEX
8
0
10
84.4804
20
15.51354375
30
0
0
VERTEX
8
0
10
84.09354375000001
20
15.900400000000001
30
0
0
VERTEX
8
0
10
83.54645625
20
15.900400000000001
30
0
0
VERTEX
8
0
10
83.1596
20
15.51354375
30
0
0
VERTEX
8
0
10
83.1596
20
14.96645625
30
0
0
VERTEX
8
0
10
83.54645625
20
14.579600000000001
30
0
0
VERTEX
8
0
10
84.09354375000001
20
14.579600000000001
30
0
0
SEQEND
0
POLYLINE
66
1
8
1_copper
10
0.0
20
0.0
30
0.0
70
1
0
VERTEX
8
0
10
85.7504
20
4.80645625
30
0
0
VERTEX
8
0
10
85.7504
20
5.35354375
30
0
0
VERTEX
8
0
10
85.36354375
20
5.7404
30
0
0
VERTEX
8
0
10
84.81645625
20
5.7404
30
0
0
VERTEX
8
0
10
84.42960000000001
20
5.35354375
30
0
0
VERTEX
8
0
10
84.42960000000001
20
4.80645625
30
0
0
VERTEX
8
0
10
84.81645625
20
4.4196
30
0
0
VERTEX
8
0
10
85.36354375
20
4.4196
30
0
0
SEQEND
0
POLYLINE
66
1
8
16_copper
10
0.0
20
0.0
30
0.0
70
1
0
VERTEX
8
0
10
57.80230625
20
9.1948
30
0
0
VERTEX
8
0
10
56.473225
20
9.1948
30
0
0
VERTEX
8
0
10
56.329012500000005
20
9.3390125
30
0
0
VERTEX
8
0
10
56.3231125
20
9.344353125
30
0
0
VERTEX
8
0
10
56.3176125
20
9.35013125
30
0
42
0.17539971942470112
0
VERTEX
8
0
10
55.921743750000005
20
9.523625000000001
30
0
0
VERTEX
8
0
10
55.88
20
9.525
30
0
0
VERTEX
8
0
10
53.873025000000005
20
9.525
30
0
0
VERTEX
8
0
10
46.744
20
16.654025
30
0
0
VERTEX
8
0
10
46.744
20
17.264
30
0
0
VERTEX
8
0
10
45.236000000000004
20
17.264
30
0
0
VERTEX
8
0
10
45.236000000000004
20
17.145
30
0
0
VERTEX
8
0
10
42.490525000000005
20
17.145
30
0
0
VERTEX
8
0
10
35.2425
20
24.393025
30
0
0
VERTEX
8
0
10
35.2425
20
48.631975000000004
30
0
0
VERTEX
8
0
10
41.538025000000005
20
54.9275
30
0
0
VERTEX
8
0
10
72.761975
20
54.9275
30
0
0
VERTEX
8
0
10
77.0209875
20
50.668487500000005
30
0
0
VERTEX
8
0
10
77.0268875
20
50.663146875
30
0
0
VERTEX
8
0
10
77.0323875
20
50.65736875
30
0
42
0.17539971942470112
0
VERTEX
8
0
10
77.42825625
20
50.483875000000005
30
0
0
VERTEX
8
0
10
77.47
20
50.4825
30
0
0
VERTEX
8
0
10
78.159475
20
50.4825
30
0
0
VERTEX
8
0
10
78.2909875
20
50.3509875
30
0
0
VERTEX
8
0
10
78.2968875
20
50.345646875
30
0
0
VERTEX
8
0
10
78.30238750000001
20
50.33986875
30
0
42
0.17539971942470112
0
VERTEX
8
0
10
78.69825625
20
50.166375
30
0
0
VERTEX
8
0
10
78.74000000000001
20
50.165
30
0
0
VERTEX
8
0
10
90.805
20
50.165
30
0
0
VERTEX
8
0
10
90.805
20
49.663975
30
0
0
VERTEX
8
0
10
90.795240625
20
49.643046875
30
0
42
0.08748803949021411
0
VERTEX
8
0
10
90.72
20
49.3036625
30
0
0
VERTEX
8
0
10
90.72
20
47.2163375
30
0
0
VERTEX
8
0
10
90.727609375
20
47.12935
30
0
42
0.06554340622793048
0
VERTEX
8
0
10
90.795240625
20
46.876953125
30
0
0
VERTEX
8
0
10
90.805
20
46.856025
30
0
0
VERTEX
8
0
10
90.805
20
35.148
30
0
0
VERTEX
8
0
10
90.808121875
20
35.085100000000004
30
0
42
0.9207235343935894
0
VERTEX
8
0
10
92.073625
20
35.10625625
30
0
0
VERTEX
8
0
10
92.075
20
35.148
30
0
0
VERTEX
8
0
10
92.075
20
46.32503125
30
0
0
VERTEX
8
0
10
92.103046875
20
46.335240625000004
30
0
42
0.29147324841366246
0
VERTEX
8
0
10
92.72
20
47.2163375
30
0
0
VERTEX
8
0
10
92.72
20
47.625
30
0
0
VERTEX
8
0
10
93.52000000000001
20
47.625
30
0
0
VERTEX
8
0
10
93.5279625
20
47.62539375
30
0
0
VERTEX
8
0
10
93.535921875
20
47.6252
30
0
42
0.17540035433691983
0
VERTEX
8
0
10
93.938525
20
47.782440625
30
0
0
VERTEX
8
0
10
93.9690125
20
47.8109875
30
0
0
VERTEX
8
0
10
96.418025
20
50.260000000000005
30
0
0
VERTEX
8
0
10
97.5636625
20
50.260000000000005
30
0
0
VERTEX
8
0
10
97.65065
20
50.267609375
30
0
42
0.9163307801196574
0
VERTEX
8
0
10
97.5636625
20
52.260000000000005
30
0
0
VERTEX
8
0
10
95.4763375
20
52.260000000000005
30
0
0
VERTEX
8
0
10
95.38935000000001
20
52.252390625000004
30
0
42
0.637070726118339
0
VERTEX
8
0
10
94.843765625
20
50.52201875
30
0
0
VERTEX
8
0
10
94.865640625
20
50.503665625000004
30
0
0
VERTEX
8
0
10
93.25697500000001
20
48.895
30
0
0
VERTEX
8
0
10
92.72
20
48.895
30
0
0
VERTEX
8
0
10
92.72
20
49.3036625
30
0
0
VERTEX
8
0
10
92.712390625
20
49.39065
30
0
42
0.26794962670322126
0
VERTEX
8
0
10
92.103046875
20
50.184759375000006
30
0
0
VERTEX
8
0
10
92.075
20
50.19496875
30
0
0
VERTEX
8
0
10
92.075
20
50.800000000000004
30
0
0
VERTEX
8
0
10
92.0747375
20
50.805293750000004
30
0
0
VERTEX
8
0
10
92.07491250000001
20
50.810615625000004
30
0
42
0.39025002331004527
0
VERTEX
8
0
10
91.48174375
20
51.433625
30
0
0
VERTEX
8
0
10
91.44
20
51.435
30
0
0
VERTEX
8
0
10
79.00302500000001
20
51.435
30
0
0
VERTEX
8
0
10
78.87151250000001
20
51.5665125
30
0
0
VERTEX
8
0
10
78.8656125
20
51.571853125000004
30
0
0
VERTEX
8
0
10
78.8601125
20
51.57763125
30
0
42
0.17539971942470112
0
VERTEX
8
0
10
78.46424375000001
20
51.751125
30
0
0
VERTEX
8
0
10
78.4225
20
51.752500000000005
30
0
0
VERTEX
8
0
10
77.733025
20
51.752500000000005
30
0
0
VERTEX
8
0
10
73.4740125
20
56.0115125
30
0
0
VERTEX
8
0
10
73.4681125
20
56.016853125000004
30
0
0
VERTEX
8
0
10
73.4626125
20
56.02263125
30
0
42
0.17539971942470112
0
VERTEX
8
0
10
73.06674375
20
56.196125
30
0
0
VERTEX
8
0
10
73.025
20
56.197500000000005
30
0
0
VERTEX
8
0
10
41.275
20
56.197500000000005
30
0
0
VERTEX
8
0
10
41.2670375
20
56.197106250000004
30
0
0
VERTEX
8
0
10
41.259078125
20
56.197300000000006
30
0
42
0.17540035433691983
0
VERTEX
8
0
10
40.856475
20
56.040059375000006
30
0
0
VERTEX
8
0
10
40.825987500000004
20
56.0115125
30
0
0
VERTEX
8
0
10
34.1584875
20
49.344012500000005
30
0
0
VERTEX
8
0
10
34.153146875000004
20
49.3381125
30
0
0
VERTEX
8
0
10
34.14736875
20
49.3326125
30
0
42
0.17539971942470112
0
VERTEX
8
0
10
33.973875
20
48.936743750000005
30
0
0
VERTEX
8
0
10
33.972500000000004
20
48.895
30
0
0
VERTEX
8
0
10
33.972500000000004
20
24.130000000000003
30
0
0
VERTEX
8
0
10
33.972893750000004
20
24.1220375
30
0
0
VERTEX
8
0
10
33.9727
20
24.114078125000002
30
0
42
0.17540035433691983
0
VERTEX
8
0
10
34.129940625
20
23.711475
30
0
0
VERTEX
8
0
10
34.1584875
20
23.6809875
30
0
0
VERTEX
8
0
10
41.778487500000004
20
16.0609875
30
0
0
VERTEX
8
0
10
41.7843875
20
16.055646875
30
0
0
VERTEX
8
0
10
41.7898875
20
16.04986875
30
0
42
0.17539971942470112
0
VERTEX
8
0
10
42.185756250000004
20
15.876375000000001
30
0
0
VERTEX
8
0
10
42.2275
20
15.875
30
0
0
VERTEX
8
0
10
45.236000000000004
20
15.875
30
0
0
VERTEX
8
0
10
45.236000000000004
20
15.756
30
0
0
VERTEX
8
0
10
45.845975
20
15.756
30
0
0
VERTEX
8
0
10
53.160987500000005
20
8.4409875
30
0
0
VERTEX
8
0
10
53.1668875
20
8.435646875
30
0
0
VERTEX
8
0
10
53.1723875
20
8.42986875
30
0
42
0.17539971942470112
0
VERTEX
8
0
10
53.568256250000005
20
8.256375
30
0
0
VERTEX
8
0
10
53.61
20
8.255
30
0
0
VERTEX
8
0
10
55.616975000000004
20
8.255
30
0
0
VERTEX
8
0
10
55.761187500000005
20
8.1107875
30
0
0
VERTEX
8
0
10
55.7670875
20
8.105446875
30
0
0
VERTEX
8
0
10
55.7725875
20
8.099668750000001
30
0
42
0.17539971942470112
0
VERTEX
8
0
10
56.168456250000006
20
7.926175000000001
30
0
0
VERTEX
8
0
10
56.2102
20
7.9248
30
0
0
VERTEX
8
0
10
58.06533125
20
7.9248
30
0
0
VERTEX
8
0
10
58.073293750000005
20
7.92519375
30
0
0
VERTEX
8
0
10
58.081253125
20
7.925000000000001
30
0
42
0.17540035433691983
0
VERTEX
8
0
10
58.48385625
20
8.082240625
30
0
0
VERTEX
8
0
10
58.51434375
20
8.1107875
30
0
0
VERTEX
8
0
10
61.4090125
20
11.00545625
30
0
0
VERTEX
8
0
10
61.414353125000005
20
11.01135625
30
0
0
VERTEX
8
0
10
61.420131250000004
20
11.01685625
30
0
42
0.17539971942470112
0
VERTEX
8
0
10
61.593625
20
11.412725
30
0
0
VERTEX
8
0
10
61.595000000000006
20
11.45446875
30
0
0
VERTEX
8
0
10
61.595000000000006
20
13.335
30
0
0
VERTEX
8
0
10
70.23286250000001
20
13.335
30
0
0
VERTEX
8
0
10
70.233896875
20
13.332884375
30
0
42
0.4787312033271182
0
VERTEX
8
0
10
71.208325
20
13.162240625
30
0
0
VERTEX
8
0
10
71.23881250000001
20
13.1907875
30
0
0
VERTEX
8
0
10
71.4375
20
13.389475000000001
30
0
0
VERTEX
8
0
10
72.70750000000001
20
12.119475000000001
30
0
0
VERTEX
8
0
10
72.70750000000001
20
10.477500000000001
30
0
0
VERTEX
8
0
10
72.70789375
20
10.469537500000001
30
0
0
VERTEX
8
0
10
72.7077
20
10.461578125
30
0
42
0.17540035433691983
0
VERTEX
8
0
10
72.864940625
20
10.058975
30
0
0
VERTEX
8
0
10
72.8934875
20
10.0284875
30
0
0
VERTEX
8
0
10
81.7199875
20
1.2019875
30
0
0
VERTEX
8
0
10
81.7258875
20
1.196646875
30
0
0
VERTEX
8
0
10
81.73138750000001
20
1.1908687500000001
30
0
42
0.17539971942470112
0
VERTEX
8
0
10
82.12725625
20
1.0173750000000001
30
0
0
VERTEX
8
0
10
82.169
20
1.016
30
0
0
VERTEX
8
0
10
83.82000000000001
20
1.016
30
0
0
VERTEX
8
0
10
83.8279625
20
1.01639375
30
0
0
VERTEX
8
0
10
83.83592187500001
20
1.0162
30
0
42
0.17540035433691983
0
VERTEX
8
0
10
84.23852500000001
20
1.173440625
30
0
0
VERTEX
8
0
10
84.2690125
20
1.2019875
30
0
0
VERTEX
8
0
10
85.2215125
20
2.1544875
30
0
0
VERTEX
8
0
10
85.226853125
20
2.1603875
30
0
0
VERTEX
8
0
10
85.23263125
20
2.1658875
30
0
42
0.17539971942470112
0
VERTEX
8
0
10
85.406125
20
2.56175625
30
0
0
VERTEX
8
0
10
85.4075
20
2.6035
30
0
0
VERTEX
8
0
10
85.4075
20
4.46355625
30
0
0
VERTEX
8
0
10
85.7504
20
4.80645625
30
0
0
VERTEX
8
0
10
85.7504
20
5.35354375
30
0
0
VERTEX
8
0
10
85.72500000000001
20
5.37894375
30
0
0
VERTEX
8
0
10
85.72500000000001
20
7.3025
30
0
0
VERTEX
8
0
10
85.72460625000001
20
7.310462500000001
30
0
0
VERTEX
8
0
10
85.7248
20
7.318421875
30
0
42
0.17540035433691983
0
VERTEX
8
0
10
85.567559375
20
7.721025
30
0
0
VERTEX
8
0
10
85.5390125
20
7.7515125000000005
30
0
0
VERTEX
8
0
10
82.2325
20
11.058025
30
0
0
VERTEX
8
0
10
82.2325
20
14.341975000000001
30
0
0
VERTEX
8
0
10
82.495525
20
14.605
30
0
0
VERTEX
8
0
10
83.52105625
20
14.605
30
0
0
VERTEX
8
0
10
83.54645625
20
14.579600000000001
30
0
0
VERTEX
8
0
10
84.09354375000001
20
14.579600000000001
30
0
0
VERTEX
8
0
10
84.4804
20
14.96645625
30
0
0
VERTEX
8
0
10
84.4804
20
15.51354375
30
0
0
VERTEX
8
0
10
84.455
20
15.538943750000001
30
0
0
VERTEX
8
0
10
84.455
20
17.516975000000002
30
0
0
VERTEX
8
0
10
87.1265125
20
20.1884875
30
0
0
VERTEX
8
0
10
87.131853125
20
20.1943875
30
0
0
VERTEX
8
0
10
87.13763125
20
20.199887500000003
30
0
42
0.17539971942470112
0
VERTEX
8
0
10
87.311125
20
20.59575625
30
0
0
VERTEX
8
0
10
87.3125
20
20.6375
30
0
0
VERTEX
8
0
10
87.3125
20
22.5425
30
0
0
VERTEX
8
0
10
87.31210625
20
22.550462500000002
30
0
0
VERTEX
8
0
10
87.31230000000001
20
22.558421875
30
0
42
0.17540035433691983
0
VERTEX
8
0
10
87.15505937500001
20
22.961025
30
0
0
VERTEX
8
0
10
87.1265125
20
22.991512500000002
30
0
0
VERTEX
8
0
10
85.5390125
20
24.5790125
30
0
0
VERTEX
8
0
10
85.5331125
20
24.584353125
30
0
0
VERTEX
8
0
10
85.5276125
20
24.590131250000002
30
0
42
0.17539971942470112
0
VERTEX
8
0
10
85.13174375
20
24.763625
30
0
0
VERTEX
8
0
10
85.09
20
24.765
30
0
0
VERTEX
8
0
10
84.98081875
20
24.765
30
0
0
VERTEX
8
0
10
84.9621
20
24.777506250000002
30
0
0
VERTEX
8
0
10
84.896765625
20
24.81243125
30
0
42
0.09849164773179571
0
VERTEX
8
0
10
84.611040625
20
24.884
30
0
0
VERTEX
8
0
10
83.028959375
20
24.884
30
0
0
VERTEX
8
0
10
82.95523125
20
24.8767375
30
0
42
0.906347362423788
0
VERTEX
8
0
10
83.028959375
20
23.376
30
0
0
VERTEX
8
0
10
84.611040625
20
23.376
30
0
0
VERTEX
8
0
10
84.68476875
20
23.3832625
30
0
42
0.04912670472580084
0
VERTEX
8
0
10
84.828321875
20
23.419218750000002
30
0
0
VERTEX
8
0
10
84.88095625
20
23.44101875
30
0
0
VERTEX
8
0
10
86.0425
20
22.279475
30
0
0
VERTEX
8
0
10
86.0425
20
20.900525000000002
30
0
0
VERTEX
8
0
10
83.3709875
20
18.2290125
30
0
0
VERTEX
8
0
10
83.36564687500001
20
18.2231125
30
0
0
VERTEX
8
0
10
83.35986875
20
18.2176125
30
0
42
0.17539971942470112
0
VERTEX
8
0
10
83.186375
20
17.82174375
30
0
0
VERTEX
8
0
10
83.185
20
17.78
30
0
0
VERTEX
8
0
10
83.185
20
15.875
30
0
0
VERTEX
8
0
10
82.2325
20
15.875
30
0
0
VERTEX
8
0
10
82.22453750000001
20
15.874606250000001
30
0
0
VERTEX
8
0
10
82.216578125
20
15.8748
30
0
42
0.17540035433691983
0
VERTEX
8
0
10
81.813975
20
15.717559375
30
0
0
VERTEX
8
0
10
81.7834875
20
15.6890125
30
0
0
VERTEX
8
0
10
81.1484875
20
15.0540125
30
0
0
VERTEX
8
0
10
81.143146875
20
15.0481125
30
0
0
VERTEX
8
0
10
81.13736875000001
20
15.0426125
30
0
42
0.17539971942470112
0
VERTEX
8
0
10
80.963875
20
14.64674375
30
0
0
VERTEX
8
0
10
80.9625
20
14.605
30
0
0
VERTEX
8
0
10
80.9625
20
10.795
30
0
0
VERTEX
8
0
10
80.96289375
20
10.7870375
30
0
0
VERTEX
8
0
10
80.9627
20
10.779078125
30
0
42
0.17540035433691983
0
VERTEX
8
0
10
81.119940625
20
10.376475000000001
30
0
0
VERTEX
8
0
10
81.1484875
20
10.3459875
30
0
0
VERTEX
8
0
10
84.455
20
7.039475
30
0
0
VERTEX
8
0
10
84.455
20
5.37894375
30
0
0
VERTEX
8
0
10
84.42960000000001
20
5.35354375
30
0
0
VERTEX
8
0
10
84.42960000000001
20
5.3176250000000005
30
0
0
VERTEX
8
0
10
84.3234875
20
5.2115125
30
0
42
0.18186941841848478
0
VERTEX
8
0
10
84.138875
20
4.80424375
30
0
0
VERTEX
8
0
10
84.1375
20
4.7625
30
0
0
VERTEX
8
0
10
84.1375
20
2.866525
30
0
0
VERTEX
8
0
10
83.55697500000001
20
2.286
30
0
0
VERTEX
8
0
10
82.43202500000001
20
2.286
30
0
0
VERTEX
8
0
10
73.9775
20
10.740525
30
0
0
VERTEX
8
0
10
73.9775
20
12.3825
30
0
0
VERTEX
8
0
10
73.97710625
20
12.3904625
30
0
0
VERTEX
8
0
10
73.9773
20
12.398421875
30
0
42
0.17540035433691983
0
VERTEX
8
0
10
73.820059375
20
12.801025000000001
30
0
0
VERTEX
8
0
10
73.79151250000001
20
12.8315125
30
0
0
VERTEX
8
0
10
71.88651250000001
20
14.7365125
30
0
0
VERTEX
8
0
10
71.88257812500001
20
14.740075000000001
30
0
0
VERTEX
8
0
10
71.87894375
20
14.74395625
30
0
42
0.3902502314675149
0
VERTEX
8
0
10
71.018975
20
14.765059375
30
0
0
VERTEX
8
0
10
70.9884875
20
14.7365125
30
0
0
VERTEX
8
0
10
70.856975
20
14.605
30
0
0
VERTEX
8
0
10
61.595000000000006
20
14.605
30
0
0
VERTEX
8
0
10
61.595000000000006
20
29.21
30
0
0
VERTEX
8
0
10
61.594606250000005
20
29.217962500000002
30
0
0
VERTEX
8
0
10
61.594800000000006
20
29.225921875
30
0
42
0.17540035433691983
0
VERTEX
8
0
10
61.437559375000006
20
29.628525
30
0
0
VERTEX
8
0
10
61.4090125
20
29.659012500000003
30
0
0
VERTEX
8
0
10
59.3725
20
31.695525
30
0
0
VERTEX
8
0
10
59.3725
20
36.83
30
0
0
VERTEX
8
0
10
59.372237500000004
20
36.835293750000005
30
0
0
VERTEX
8
0
10
59.3724125
20
36.840615625000005
30
0
42
0.39025002331004527
0
VERTEX
8
0
10
58.779243750000006
20
37.463625
30
0
0
VERTEX
8
0
10
58.737500000000004
20
37.465
30
0
0
VERTEX
8
0
10
58.683025
20
37.465
30
0
0
VERTEX
8
0
10
56.515
20
39.633025
30
0
0
VERTEX
8
0
10
56.515
20
42.916975
30
0
0
VERTEX
8
0
10
58.683025
20
45.085
30
0
0
VERTEX
8
0
10
62.230000000000004
20
45.085
30
0
0
VERTEX
8
0
10
62.235293750000004
20
45.0852625
30
0
0
VERTEX
8
0
10
62.240615625000004
20
45.0850875
30
0
42
0.39025002331004527
0
VERTEX
8
0
10
62.863625000000006
20
45.678256250000004
30
0
0
VERTEX
8
0
10
62.865
20
45.72
30
0
0
VERTEX
8
0
10
62.865
20
48.369181250000004
30
0
0
VERTEX
8
0
10
62.87750625
20
48.3879
30
0
42
0.12333848897222142
0
VERTEX
8
0
10
62.984
20
48.738959375
30
0
0
VERTEX
8
0
10
62.984
20
50.321040625
30
0
0
VERTEX
8
0
10
62.976737500000006
20
50.394768750000004
30
0
42
0.906347362423788
0
VERTEX
8
0
10
61.476000000000006
20
50.321040625
30
0
0
VERTEX
8
0
10
61.476000000000006
20
48.738959375
30
0
0
VERTEX
8
0
10
61.4832625
20
48.665231250000005
30
0
42
0.09849108090397155
0
VERTEX
8
0
10
61.582493750000005
20
48.3879
30
0
0
VERTEX
8
0
10
61.595000000000006
20
48.369181250000004
30
0
0
VERTEX
8
0
10
61.595000000000006
20
46.355000000000004
30
0
0
VERTEX
8
0
10
58.42
20
46.355000000000004
30
0
0
VERTEX
8
0
10
58.412037500000004
20
46.35460625
30
0
0
VERTEX
8
0
10
58.404078125000005
20
46.354800000000004
30
0
42
0.17540035433691983
0
VERTEX
8
0
10
58.001475
20
46.197559375000004
30
0
0
VERTEX
8
0
10
57.9709875
20
46.1690125
30
0
0
VERTEX
8
0
10
55.4309875
20
43.6290125
30
0
0
VERTEX
8
0
10
55.425646875000005
20
43.623112500000005
30
0
0
VERTEX
8
0
10
55.41986875
20
43.6176125
30
0
42
0.17539971942470112
0
VERTEX
8
0
10
55.246375
20
43.22174375
30
0
0
VERTEX
8
0
10
55.245000000000005
20
43.18
30
0
0
VERTEX
8
0
10
55.245000000000005
20
39.370000000000005
30
0
0
VERTEX
8
0
10
55.245393750000005
20
39.3620375
30
0
0
VERTEX
8
0
10
55.245200000000004
20
39.354078125
30
0
42
0.17540035433691983
0
VERTEX
8
0
10
55.402440625000004
20
38.951475
30
0
0
VERTEX
8
0
10
55.4309875
20
38.9209875
30
0
0
VERTEX
8
0
10
57.9709875
20
36.3809875
30
0
0
VERTEX
8
0
10
57.976887500000004
20
36.375646875
30
0
0
VERTEX
8
0
10
57.9823875
20
36.36986875
30
0
42
0.0496501451601806
0
VERTEX
8
0
10
58.081684375
20
36.292628125
30
0
0
VERTEX
8
0
10
58.102190625000006
20
36.281096875
30
0
0
VERTEX
8
0
10
58.102500000000006
20
36.2809125
30
0
0
VERTEX
8
0
10
58.102500000000006
20
31.4325
30
0
0
VERTEX
8
0
10
58.10289375
20
31.424537500000003
30
0
0
VERTEX
8
0
10
58.102700000000006
20
31.416578125
30
0
42
0.17540035433691983
0
VERTEX
8
0
10
58.259940625000006
20
31.013975000000002
30
0
0
VERTEX
8
0
10
58.2884875
20
30.983487500000003
30
0
0
VERTEX
8
0
10
60.325
20
28.946975000000002
30
0
0
VERTEX
8
0
10
60.325
20
11.717493750000001
30
0
0
SEQEND
0
POLYLINE
66
1
8
1_copper
10
0.0
20
0.0
30
0.0
70
1
0
VERTEX
8
0
10
46.744
20
32.504000000000005
30
0
0
VERTEX
8
0
10
45.236000000000004
20
32.504000000000005
30
0
0
VERTEX
8
0
10
45.236000000000004
20
30.996000000000002
30
0
0
VERTEX
8
0
10
46.744
20
30.996000000000002
30
0
0
SEQEND
0
POLYLINE
66
1
8
16_copper
10
0.0
20
0.0
30
0.0
70
1
0
VERTEX
8
0
10
46.744
20
31.115000000000002
30
0
0
VERTEX
8
0
10
55.88
20
31.115000000000002
30
0
0
VERTEX
8
0
10
55.9429
20
31.118121875
30
0
42
0.9207235343935894
0
VERTEX
8
0
10
55.921743750000005
20
32.383625
30
0
0
VERTEX
8
0
10
55.88
20
32.385
30
0
0
VERTEX
8
0
10
46.744
20
32.385
30
0
0
VERTEX
8
0
10
46.744
20
32.504000000000005
30
0
0
VERTEX
8
0
10
45.236000000000004
20
32.504000000000005
30
0
0
VERTEX
8
0
10
45.236000000000004
20
30.996000000000002
30
0
0
VERTEX
8
0
10
46.744
20
30.996000000000002
30
0
0
SEQEND
0
POLYLINE
66
1
8
1_copper
10
0.0
20
0.0
30
0.0
70
1
0
VERTEX
8
0
10
46.744
20
29.964000000000002
30
0
0
VERTEX
8
0
10
45.236000000000004
20
29.964000000000002
30
0
0
VERTEX
8
0
10
45.236000000000004
20
28.456000000000003
30
0
0
VERTEX
8
0
10
46.744
20
28.456000000000003
30
0
0
SEQEND
0
POLYLINE
66
1
8
16_copper
10
0.0
20
0.0
30
0.0
70
1
0
VERTEX
8
0
10
46.744
20
28.575000000000003
30
0
0
VERTEX
8
0
10
55.88
20
28.575000000000003
30
0
0
VERTEX
8
0
10
55.9429
20
28.578121875
30
0
42
0.9207235343935894
0
VERTEX
8
0
10
55.921743750000005
20
29.843625000000003
30
0
0
VERTEX
8
0
10
55.88
20
29.845000000000002
30
0
0
VERTEX
8
0
10
46.744
20
29.845000000000002
30
0
0
VERTEX
8
0
10
46.744
20
29.964000000000002
30
0
0
VERTEX
8
0
10
45.236000000000004
20
29.964000000000002
30
0
0
VERTEX
8
0
10
45.236000000000004
20
28.456000000000003
30
0
0
VERTEX
8
0
10
46.744
20
28.456000000000003
30
0
0
SEQEND
0
POLYLINE
66
1
8
1_copper
10
0.0
20
0.0
30
0.0
70
1
0
VERTEX
8
0
10
46.744
20
27.424000000000003
30
0
0
VERTEX
8
0
10
45.236000000000004
20
27.424000000000003
30
0
0
VERTEX
8
0
10
45.236000000000004
20
25.916
30
0
0
VERTEX
8
0
10
46.744
20
25.916
30
0
0
SEQEND
0
POLYLINE
66
1
8
16_copper
10
0.0
20
0.0
30
0.0
70
1
0
VERTEX
8
0
10
46.744
20
26.035
30
0
0
VERTEX
8
0
10
55.88
20
26.035
30
0
0
VERTEX
8
0
10
55.9429
20
26.038121875
30
0
42
0.9207235343935894
0
VERTEX
8
0
10
55.921743750000005
20
27.303625
30
0
0
VERTEX
8
0
10
55.88
20
27.305
30
0
0
VERTEX
8
0
10
46.744
20
27.305
30
0
0
VERTEX
8
0
10
46.744
20
27.424000000000003
30
0
0
VERTEX
8
0
10
45.236000000000004
20
27.424000000000003
30
0
0
VERTEX
8
0
10
45.236000000000004
20
25.916
30
0
0
VERTEX
8
0
10
46.744
20
25.916
30
0
0
SEQEND
0
POLYLINE
66
1
8
1_copper
10
0.0
20
0.0
30
0.0
70
1
0
VERTEX
8
0
10
46.744
20
24.884
30
0
0
VERTEX
8
0
10
45.236000000000004
20
24.884
30
0
0
VERTEX
8
0
10
45.236000000000004
20
23.376
30
0
0
VERTEX
8
0
10
46.744
20
23.376
30
0
0
SEQEND
0
POLYLINE
66
1
8
16_copper
10
0.0
20
0.0
30
0.0
70
1
0
VERTEX
8
0
10
46.744
20
24.884
30
0
0
VERTEX
8
0
10
45.236000000000004
20
24.884
30
0
0
VERTEX
8
0
10
45.236000000000004
20
24.877025
30
0
0
VERTEX
8
0
10
41.5925
20
28.520525000000003
30
0
0
VERTEX
8
0
10
41.5925
20
45.456975
30
0
0
VERTEX
8
0
10
43.443025
20
47.307500000000005
30
0
0
VERTEX
8
0
10
45.456975
20
47.307500000000005
30
0
0
VERTEX
8
0
10
47.9425
20
44.821975
30
0
0
VERTEX
8
0
10
47.9425
20
40.005
30
0
0
VERTEX
8
0
10
47.94289375
20
39.997037500000005
30
0
0
VERTEX
8
0
10
47.9427
20
39.989078125
30
0
42
0.17540035433691983
0
VERTEX
8
0
10
48.099940625
20
39.586475
30
0
0
VERTEX
8
0
10
48.128487500000006
20
39.5559875
30
0
0
VERTEX
8
0
10
53.8434875
20
33.840987500000004
30
0
0
VERTEX
8
0
10
53.849387500000006
20
33.835646875
30
0
0
VERTEX
8
0
10
53.854887500000004
20
33.82986875
30
0
42
0.17539971942470112
0
VERTEX
8
0
10
54.25075625
20
33.656375000000004
30
0
0
VERTEX
8
0
10
54.292500000000004
20
33.655
30
0
0
VERTEX
8
0
10
55.88
20
33.655
30
0
0
VERTEX
8
0
10
55.9429
20
33.658121875
30
0
42
0.9207235343935894
0
VERTEX
8
0
10
55.921743750000005
20
34.923625
30
0
0
VERTEX
8
0
10
55.88
20
34.925000000000004
30
0
0
VERTEX
8
0
10
54.555525
20
34.925000000000004
30
0
0
VERTEX
8
0
10
49.212500000000006
20
40.268025
30
0
0
VERTEX
8
0
10
49.212500000000006
20
45.085
30
0
0
VERTEX
8
0
10
49.212106250000005
20
45.0929625
30
0
0
VERTEX
8
0
10
49.2123
20
45.100921875000004
30
0
42
0.17540035433691983
0
VERTEX
8
0
10
49.055059375
20
45.503525
30
0
0
VERTEX
8
0
10
49.0265125
20
45.5340125
30
0
0
VERTEX
8
0
10
46.1690125
20
48.391512500000005
30
0
0
VERTEX
8
0
10
46.163112500000004
20
48.396853125
30
0
0
VERTEX
8
0
10
46.1576125
20
48.40263125
30
0
42
0.17539971942470112
0
VERTEX
8
0
10
45.76174375
20
48.576125000000005
30
0
0
VERTEX
8
0
10
45.72
20
48.5775
30
0
0
VERTEX
8
0
10
43.18
20
48.5775
30
0
0
VERTEX
8
0
10
43.1720375
20
48.57710625
30
0
0
VERTEX
8
0
10
43.164078125
20
48.5773
30
0
42
0.17540035433691983
0
VERTEX
8
0
10
42.761475000000004
20
48.420059375
30
0
0
VERTEX
8
0
10
42.730987500000005
20
48.391512500000005
30
0
0
VERTEX
8
0
10
40.5084875
20
46.1690125
30
0
0
VERTEX
8
0
10
40.503146875
20
46.163112500000004
30
0
0
VERTEX
8
0
10
40.49736875
20
46.1576125
30
0
42
0.17539971942470112
0
VERTEX
8
0
10
40.323875
20
45.76174375
30
0
0
VERTEX
8
0
10
40.322500000000005
20
45.72
30
0
0
VERTEX
8
0
10
40.322500000000005
20
28.2575
30
0
0
VERTEX
8
0
10
40.32289375
20
28.249537500000002
30
0
0
VERTEX
8
0
10
40.322700000000005
20
28.241578125
30
0
42
0.17540035433691983
0
VERTEX
8
0
10
40.479940625000005
20
27.838975
30
0
0
VERTEX
8
0
10
40.5084875
20
27.808487500000002
30
0
0
VERTEX
8
0
10
44.6359875
20
23.6809875
30
0
0
VERTEX
8
0
10
44.6418875
20
23.675646875
30
0
0
VERTEX
8
0
10
44.6473875
20
23.669868750000003
30
0
42
0.17539971942470112
0
VERTEX
8
0
10
45.04325625
20
23.496375
30
0
0
VERTEX
8
0
10
45.085
20
23.495
30
0
0
VERTEX
8
0
10
45.236000000000004
20
23.495
30
0
0
VERTEX
8
0
10
45.236000000000004
20
23.376
30
0
0
VERTEX
8
0
10
46.744
20
23.376
30
0
0
SEQEND
0
POLYLINE
66
1
8
1_copper
10
0.0
20
0.0
30
0.0
70
1
0
VERTEX
8
0
10
70.5104
20
39.09645625
30
0
0
VERTEX
8
0
10
70.5104
20
39.64354375
30
0
0
VERTEX
8
0
10
70.12354375000001
20
40.0304
30
0
0
VERTEX
8
0
10
69.57645625
20
40.0304
30
0
0
VERTEX
8
0
10
69.1896
20
39.64354375
30
0
0
VERTEX
8
0
10
69.1896
20
39.09645625
30
0
0
VERTEX
8
0
10
69.57645625
20
38.7096
30
0
0
VERTEX
8
0
10
70.12354375000001
20
38.7096
30
0
0
SEQEND
0
POLYLINE
66
1
8
1_copper
10
0.0
20
0.0
30
0.0
70
1
0
VERTEX
8
0
10
87.31
20
36.098
30
0
0
VERTEX
8
0
10
85.41000000000001
20
36.098
30
0
0
VERTEX
8
0
10
85.41000000000001
20
34.198
30
0
0
VERTEX
8
0
10
87.31
20
34.198
30
0
0
SEQEND
0
POLYLINE
66
1
8
16_copper
10
0.0
20
0.0
30
0.0
70
1
0
VERTEX
8
0
10
87.31
20
36.098
30
0
0
VERTEX
8
0
10
86.995
20
36.098
30
0
0
VERTEX
8
0
10
86.995
20
40.9575
30
0
0
VERTEX
8
0
10
86.99460625
20
40.9654625
30
0
0
VERTEX
8
0
10
86.9948
20
40.973421875
30
0
42
0.17540035433691983
0
VERTEX
8
0
10
86.837559375
20
41.376025
30
0
0
VERTEX
8
0
10
86.80901250000001
20
41.406512500000005
30
0
0
VERTEX
8
0
10
82.3640125
20
45.851512500000005
30
0
0
VERTEX
8
0
10
82.3581125
20
45.856853125
30
0
0
VERTEX
8
0
10
82.3526125
20
45.86263125
30
0
42
0.17539971942470112
0
VERTEX
8
0
10
81.95674375
20
46.036125000000006
30
0
0
VERTEX
8
0
10
81.915
20
46.0375
30
0
0
VERTEX
8
0
10
73.3425
20
46.0375
30
0
0
VERTEX
8
0
10
73.33453750000001
20
46.03710625
30
0
0
VERTEX
8
0
10
73.326578125
20
46.0373
30
0
42
0.17540035433691983
0
VERTEX
8
0
10
72.923975
20
45.880059375
30
0
0
VERTEX
8
0
10
72.8934875
20
45.851512500000005
30
0
0
VERTEX
8
0
10
69.4009875
20
42.3590125
30
0
0
VERTEX
8
0
10
69.395646875
20
42.3531125
30
0
0
VERTEX
8
0
10
69.38986875
20
42.347612500000004
30
0
42
0.17539971942470112
0
VERTEX
8
0
10
69.216375
20
41.95174375
30
0
0
VERTEX
8
0
10
69.215
20
41.910000000000004
30
0
0
VERTEX
8
0
10
69.215
20
39.668943750000004
30
0
0
VERTEX
8
0
10
69.1896
20
39.64354375
30
0
0
VERTEX
8
0
10
69.1896
20
39.09645625
30
0
0
VERTEX
8
0
10
69.57645625
20
38.7096
30
0
0
VERTEX
8
0
10
70.12354375000001
20
38.7096
30
0
0
VERTEX
8
0
10
70.5104
20
39.09645625
30
0
0
VERTEX
8
0
10
70.5104
20
39.64354375
30
0
0
VERTEX
8
0
10
70.485
20
39.668943750000004
30
0
0
VERTEX
8
0
10
70.485
20
41.646975000000005
30
0
0
VERTEX
8
0
10
73.605525
20
44.767500000000005
30
0
0
VERTEX
8
0
10
81.65197500000001
20
44.767500000000005
30
0
0
VERTEX
8
0
10
85.72500000000001
20
40.694475000000004
30
0
0
VERTEX
8
0
10
85.72500000000001
20
36.098
30
0
0
VERTEX
8
0
10
85.41000000000001
20
36.098
30
0
0
VERTEX
8
0
10
85.41000000000001
20
34.198
30
0
0
VERTEX
8
0
10
87.31
20
34.198
30
0
0
SEQEND
0
POLYLINE
66
1
8
1_copper
10
0.0
20
0.0
30
0.0
70
1
0
VERTEX
8
0
10
99.17076875000001
20
18.8192625
30
0
42
0.3578058410891132
0
VERTEX
8
0
10
99.81400000000001
20
19.528959375
30
0
0
VERTEX
8
0
10
99.81400000000001
20
21.111040625
30
0
0
VERTEX
8
0
10
99.80673750000001
20
21.18476875
30
0
42
0.906347362423788
0
VERTEX
8
0
10
98.30600000000001
20
21.111040625
30
0
0
VERTEX
8
0
10
98.30600000000001
20
19.528959375
30
0
0
VERTEX
8
0
10
98.31326250000001
20
19.45523125
30
0
42
0.38574191329236746
0
VERTEX
8
0
10
99.097040625
20
18.812
30
0
0
SEQEND
0
POLYLINE
66
1
8
1_copper
10
0.0
20
0.0
30
0.0
70
1
0
VERTEX
8
0
10
99.17076875000001
20
9.9292625
30
0
42
0.3578058410891132
0
VERTEX
8
0
10
99.81400000000001
20
10.638959375
30
0
0
VERTEX
8
0
10
99.81400000000001
20
12.221040625
30
0
0
VERTEX
8
0
10
99.80673750000001
20
12.294768750000001
30
0
42
0.906347362423788
0
VERTEX
8
0
10
98.30600000000001
20
12.221040625
30
0
0
VERTEX
8
0
10
98.30600000000001
20
10.638959375
30
0
0
VERTEX
8
0
10
98.31326250000001
20
10.56523125
30
0
42
0.38574191329236746
0
VERTEX
8
0
10
99.097040625
20
9.922
30
0
0
SEQEND
0
POLYLINE
66
1
8
16_copper
10
0.0
20
0.0
30
0.0
70
1
0
VERTEX
8
0
10
96.5279625
20
5.7153937500000005
30
0
0
VERTEX
8
0
10
96.535921875
20
5.7152
30
0
42
0.17540035433691983
0
VERTEX
8
0
10
96.938525
20
5.872440625
30
0
0
VERTEX
8
0
10
96.9690125
20
5.9009875
30
0
0
VERTEX
8
0
10
99.50901250000001
20
8.4409875
30
0
0
VERTEX
8
0
10
99.514353125
20
8.4468875
30
0
0
VERTEX
8
0
10
99.52013125
20
8.4523875
30
0
42
0.17539971942470112
0
VERTEX
8
0
10
99.69362500000001
20
8.84825625
30
0
0
VERTEX
8
0
10
99.69500000000001
20
8.89
30
0
0
VERTEX
8
0
10
99.69500000000001
20
10.26918125
30
0
0
VERTEX
8
0
10
99.70750625000001
20
10.2879
30
0
42
0.12333848897222142
0
VERTEX
8
0
10
99.81400000000001
20
10.638959375
30
0
0
VERTEX
8
0
10
99.81400000000001
20
12.221040625
30
0
0
VERTEX
8
0
10
99.80673750000001
20
12.294768750000001
30
0
42
0.09849108090397155
0
VERTEX
8
0
10
99.70750625000001
20
12.5721
30
0
0
VERTEX
8
0
10
99.69500000000001
20
12.59081875
30
0
0
VERTEX
8
0
10
99.69500000000001
20
19.15918125
30
0
0
VERTEX
8
0
10
99.70750625000001
20
19.1779
30
0
42
0.12333848897222142
0
VERTEX
8
0
10
99.81400000000001
20
19.528959375
30
0
0
VERTEX
8
0
10
99.81400000000001
20
21.111040625
30
0
0
VERTEX
8
0
10
99.80673750000001
20
21.18476875
30
0
42
0.906347362423788
0
VERTEX
8
0
10
98.30600000000001
20
21.111040625
30
0
0
VERTEX
8
0
10
98.30600000000001
20
19.528959375
30
0
0
VERTEX
8
0
10
98.31326250000001
20
19.45523125
30
0
42
0.09849108090397155
0
VERTEX
8
0
10
98.41249375000001
20
19.1779
30
0
0
VERTEX
8
0
10
98.42500000000001
20
19.15918125
30
0
0
VERTEX
8
0
10
98.42500000000001
20
12.59081875
30
0
0
VERTEX
8
0
10
98.41249375000001
20
12.5721
30
0
42
0.12333848897222142
0
VERTEX
8
0
10
98.30600000000001
20
12.221040625
30
0
0
VERTEX
8
0
10
98.30600000000001
20
10.638959375
30
0
0
VERTEX
8
0
10
98.31326250000001
20
10.56523125
30
0
42
0.09849108090397155
0
VERTEX
8
0
10
98.41249375000001
20
10.2879
30
0
0
VERTEX
8
0
10
98.42500000000001
20
10.26918125
30
0
0
VERTEX
8
0
10
98.42500000000001
20
9.153025000000001
30
0
0
VERTEX
8
0
10
96.25697500000001
20
6.985
30
0
0
VERTEX
8
0
10
92.973025
20
6.985
30
0
0
VERTEX
8
0
10
90.805
20
9.153025000000001
30
0
0
VERTEX
8
0
10
90.805
20
13.706975
30
0
0
VERTEX
8
0
10
93.4765125
20
16.378487500000002
30
0
0
VERTEX
8
0
10
93.481853125
20
16.384387500000003
30
0
0
VERTEX
8
0
10
93.48763125
20
16.3898875
30
0
42
0.17539971942470112
0
VERTEX
8
0
10
93.661125
20
16.785756250000002
30
0
0
VERTEX
8
0
10
93.66250000000001
20
16.8275
30
0
0
VERTEX
8
0
10
93.66250000000001
20
24.4475
30
0
0
VERTEX
8
0
10
93.66210625000001
20
24.4554625
30
0
0
VERTEX
8
0
10
93.6623
20
24.463421875
30
0
42
0.17540035433691983
0
VERTEX
8
0
10
93.505059375
20
24.866025
30
0
0
VERTEX
8
0
10
93.4765125
20
24.8965125
30
0
0
VERTEX
8
0
10
89.53500000000001
20
28.838025000000002
30
0
0
VERTEX
8
0
10
89.53500000000001
20
35.148
30
0
0
VERTEX
8
0
10
89.531878125
20
35.2109
30
0
42
0.9207235343935894
0
VERTEX
8
0
10
88.26637500000001
20
35.189743750000005
30
0
0
VERTEX
8
0
10
88.265
20
35.148
30
0
0
VERTEX
8
0
10
88.265
20
28.575000000000003
30
0
0
VERTEX
8
0
10
88.26539375
20
28.5670375
30
0
0
VERTEX
8
0
10
88.26520000000001
20
28.559078125000003
30
0
42
0.17540035433691983
0
VERTEX
8
0
10
88.42244062500001
20
28.156475
30
0
0
VERTEX
8
0
10
88.45098750000001
20
28.1259875
30
0
0
VERTEX
8
0
10
92.3925
20
24.184475000000003
30
0
0
VERTEX
8
0
10
92.3925
20
17.090525
30
0
0
VERTEX
8
0
10
89.7209875
20
14.419012500000001
30
0
0
VERTEX
8
0
10
89.715646875
20
14.4131125
30
0
0
VERTEX
8
0
10
89.70986875
20
14.4076125
30
0
42
0.17539971942470112
0
VERTEX
8
0
10
89.536375
20
14.01174375
30
0
0
VERTEX
8
0
10
89.53500000000001
20
13.97
30
0
0
VERTEX
8
0
10
89.53500000000001
20
8.89
30
0
0
VERTEX
8
0
10
89.53539375
20
8.882037500000001
30
0
0
VERTEX
8
0
10
89.5352
20
8.874078125
30
0
42
0.17540035433691983
0
VERTEX
8
0
10
89.692440625
20
8.471475
30
0
0
VERTEX
8
0
10
89.7209875
20
8.4409875
30
0
0
VERTEX
8
0
10
92.2609875
20
5.9009875
30
0
0
VERTEX
8
0
10
92.26688750000001
20
5.895646875000001
30
0
0
VERTEX
8
0
10
92.27238750000001
20
5.889868750000001
30
0
42
0.17539971942470112
0
VERTEX
8
0
10
92.66825625
20
5.716375
30
0
0
VERTEX
8
0
10
92.71000000000001
20
5.715
30
0
0
VERTEX
8
0
10
96.52000000000001
20
5.715
30
0
0
SEQEND
0
POLYLINE
66
1
8
1_copper
10
0.0
20
0.0
30
0.0
70
1
0
VERTEX
8
0
10
97.65065
20
44.167609375000005
30
0
42
0.9163307801196574
0
VERTEX
8
0
10
97.5636625
20
46.160000000000004
30
0
0
VERTEX
8
0
10
95.4763375
20
46.160000000000004
30
0
0
VERTEX
8
0
10
95.38935000000001
20
46.152390625
30
0
42
0.9163307801196574
0
VERTEX
8
0
10
95.4763375
20
44.160000000000004
30
0
0
VERTEX
8
0
10
97.5636625
20
44.160000000000004
30
0
0
SEQEND
0
POLYLINE
66
1
8
1_copper
10
0.0
20
0.0
30
0.0
70
1
0
VERTEX
8
0
10
99.17076875000001
20
28.9792625
30
0
42
0.3578058410891132
0
VERTEX
8
0
10
99.81400000000001
20
29.688959375000003
30
0
0
VERTEX
8
0
10
99.81400000000001
20
31.271040625
30
0
0
VERTEX
8
0
10
99.80673750000001
20
31.34476875
30
0
42
0.906347362423788
0
VERTEX
8
0
10
98.30600000000001
20
31.271040625
30
0
0
VERTEX
8
0
10
98.30600000000001
20
29.688959375000003
30
0
0
VERTEX
8
0
10
98.31326250000001
20
29.61523125
30
0
42
0.38574191329236746
0
VERTEX
8
0
10
99.097040625
20
28.972
30
0
0
SEQEND
0
POLYLINE
66
1
8
16_copper
10
0.0
20
0.0
30
0.0
70
1
0
VERTEX
8
0
10
99.17076875000001
20
28.9792625
30
0
42
0.3578058410891132
0
VERTEX
8
0
10
99.81400000000001
20
29.688959375000003
30
0
0
VERTEX
8
0
10
99.81400000000001
20
31.271040625
30
0
0
VERTEX
8
0
10
99.80673750000001
20
31.34476875
30
0
42
0.09849108090397155
0
VERTEX
8
0
10
99.70750625000001
20
31.622100000000003
30
0
0
VERTEX
8
0
10
99.69500000000001
20
31.64081875
30
0
0
VERTEX
8
0
10
99.69500000000001
20
42.620000000000005
30
0
0
VERTEX
8
0
10
99.69460625
20
42.6279625
30
0
0
VERTEX
8
0
10
99.6948
20
42.635921875
30
0
42
0.17540035433691983
0
VERTEX
8
0
10
99.537559375
20
43.038525
30
0
0
VERTEX
8
0
10
99.50901250000001
20
43.0690125
30
0
0
VERTEX
8
0
10
98.17435937500001
20
44.403665625
30
0
0
VERTEX
8
0
10
98.196234375
20
44.42201875
30
0
42
0.6681783023827411
0
VERTEX
8
0
10
97.5636625
20
46.160000000000004
30
0
0
VERTEX
8
0
10
95.4763375
20
46.160000000000004
30
0
0
VERTEX
8
0
10
95.38935000000001
20
46.152390625
30
0
42
0.9163307801196574
0
VERTEX
8
0
10
95.4763375
20
44.160000000000004
30
0
0
VERTEX
8
0
10
96.621975
20
44.160000000000004
30
0
0
VERTEX
8
0
10
98.42500000000001
20
42.356975
30
0
0
VERTEX
8
0
10
98.42500000000001
20
31.64081875
30
0
0
VERTEX
8
0
10
98.41249375000001
20
31.622100000000003
30
0
42
0.12333848897222142
0
VERTEX
8
0
10
98.30600000000001
20
31.271040625
30
0
0
VERTEX
8
0
10
98.30600000000001
20
29.688959375000003
30
0
0
VERTEX
8
0
10
98.31326250000001
20
29.61523125
30
0
42
0.38574191329236746
0
VERTEX
8
0
10
99.097040625
20
28.972
30
0
0
SEQEND
0
POLYLINE
66
1
8
1_copper
10
0.0
20
0.0
30
0.0
70
1
0
VERTEX
8
0
10
84.68476875
20
20.8432625
30
0
42
0.906347362423788
0
VERTEX
8
0
10
84.611040625
20
22.344
30
0
0
VERTEX
8
0
10
83.028959375
20
22.344
30
0
0
VERTEX
8
0
10
82.95523125
20
22.3367375
30
0
42
0.906347362423788
0
VERTEX
8
0
10
83.028959375
20
20.836000000000002
30
0
0
VERTEX
8
0
10
84.611040625
20
20.836000000000002
30
0
0
SEQEND
0
POLYLINE
66
1
8
1_copper
10
0.0
20
0.0
30
0.0
70
1
0
VERTEX
8
0
10
83.2104
20
4.80645625
30
0
0
VERTEX
8
0
10
83.2104
20
5.35354375
30
0
0
VERTEX
8
0
10
82.82354375
20
5.7404
30
0
0
VERTEX
8
0
10
82.27645625000001
20
5.7404
30
0
0
VERTEX
8
0
10
81.8896
20
5.35354375
30
0
0
VERTEX
8
0
10
81.8896
20
4.80645625
30
0
0
VERTEX
8
0
10
82.27645625000001
20
4.4196
30
0
0
VERTEX
8
0
10
82.82354375
20
4.4196
30
0
0
SEQEND
0
POLYLINE
66
1
8
16_copper
10
0.0
20
0.0
30
0.0
70
1
0
VERTEX
8
0
10
81.915
20
5.37894375
30
0
0
VERTEX
8
0
10
81.8896
20
5.35354375
30
0
0
VERTEX
8
0
10
81.8896
20
4.80645625
30
0
0
VERTEX
8
0
10
82.27645625000001
20
4.4196
30
0
0
VERTEX
8
0
10
82.82354375
20
4.4196
30
0
0
VERTEX
8
0
10
83.2104
20
4.80645625
30
0
0
VERTEX
8
0
10
83.2104
20
5.35354375
30
0
0
VERTEX
8
0
10
83.185
20
5.37894375
30
0
0
VERTEX
8
0
10
83.185
20
6.032500000000001
30
0
0
VERTEX
8
0
10
83.18460625
20
6.0404625
30
0
0
VERTEX
8
0
10
83.18480000000001
20
6.048421875000001
30
0
42
0.17540035433691983
0
VERTEX
8
0
10
83.02755937500001
20
6.4510250000000005
30
0
0
VERTEX
8
0
10
82.9990125
20
6.4815125
30
0
0
VERTEX
8
0
10
75.669275
20
13.811250000000001
30
0
0
VERTEX
8
0
10
82.75904375
20
20.901018750000002
30
0
0
VERTEX
8
0
10
82.811678125
20
20.87921875
30
0
42
0.07376485753565512
0
VERTEX
8
0
10
83.028959375
20
20.836000000000002
30
0
0
VERTEX
8
0
10
84.611040625
20
20.836000000000002
30
0
0
VERTEX
8
0
10
84.68476875
20
20.8432625
30
0
42
0.906347362423788
0
VERTEX
8
0
10
84.611040625
20
22.344
30
0
0
VERTEX
8
0
10
83.028959375
20
22.344
30
0
0
VERTEX
8
0
10
82.95523125
20
22.3367375
30
0
42
0.09849108090397155
0
VERTEX
8
0
10
82.67790000000001
20
22.237506250000003
30
0
0
VERTEX
8
0
10
82.65918125
20
22.225
30
0
0
VERTEX
8
0
10
82.55
20
22.225
30
0
42
0.18186953901420325
0
VERTEX
8
0
10
82.13147500000001
20
22.067559375000002
30
0
0
VERTEX
8
0
10
82.1009875
20
22.039012500000002
30
0
0
VERTEX
8
0
10
74.77125000000001
20
14.709275
30
0
0
VERTEX
8
0
10
72.5215125
20
16.9590125
30
0
0
VERTEX
8
0
10
72.5156125
20
16.964353125000002
30
0
0
VERTEX
8
0
10
72.5101125
20
16.97013125
30
0
42
0.17539971942470112
0
VERTEX
8
0
10
72.11424375
20
17.143625
30
0
0
VERTEX
8
0
10
72.0725
20
17.145
30
0
0
VERTEX
8
0
10
71.12
20
17.145
30
0
0
VERTEX
8
0
10
71.0571
20
17.141878125
30
0
42
0.9207235343935894
0
VERTEX
8
0
10
71.07825625000001
20
15.876375000000001
30
0
0
VERTEX
8
0
10
71.12
20
15.875
30
0
0
VERTEX
8
0
10
71.809475
20
15.875
30
0
0
VERTEX
8
0
10
81.915
20
5.769475
30
0
0
SEQEND
0
POLYLINE
66
1
8
1_copper
10
0.0
20
0.0
30
0.0
70
1
0
VERTEX
8
0
10
84.68476875
20
25.9232625
30
0
42
0.906347362423788
0
VERTEX
8
0
10
84.611040625
20
27.424000000000003
30
0
0
VERTEX
8
0
10
83.028959375
20
27.424000000000003
30
0
0
VERTEX
8
0
10
82.95523125
20
27.4167375
30
0
42
0.906347362423788
0
VERTEX
8
0
10
83.028959375
20
25.916
30
0
0
VERTEX
8
0
10
84.611040625
20
25.916
30
0
0
SEQEND
0
POLYLINE
66
1
8
1_copper
10
0.0
20
0.0
30
0.0
70
1
0
VERTEX
8
0
10
84.4804
20
12.426456250000001
30
0
0
VERTEX
8
0
10
84.4804
20
12.973543750000001
30
0
0
VERTEX
8
0
10
84.09354375000001
20
13.3604
30
0
0
VERTEX
8
0
10
83.54645625
20
13.3604
30
0
0
VERTEX
8
0
10
83.1596
20
12.973543750000001
30
0
0
VERTEX
8
0
10
83.1596
20
12.426456250000001
30
0
0
VERTEX
8
0
10
83.54645625
20
12.0396
30
0
0
VERTEX
8
0
10
84.09354375000001
20
12.0396
30
0
0
SEQEND
0
POLYLINE
66
1
8
16_copper
10
0.0
20
0.0
30
0.0
70
1
0
VERTEX
8
0
10
84.4804
20
12.426456250000001
30
0
0
VERTEX
8
0
10
84.4804
20
12.462375
30
0
0
VERTEX
8
0
10
84.718025
20
12.700000000000001
30
0
0
VERTEX
8
0
10
84.77250000000001
20
12.700000000000001
30
0
42
0.18186953901420325
0
VERTEX
8
0
10
85.19102500000001
20
12.857440625
30
0
0
VERTEX
8
0
10
85.2215125
20
12.8859875
30
0
0
VERTEX
8
0
10
90.3015125
20
17.9659875
30
0
0
VERTEX
8
0
10
90.306853125
20
17.9718875
30
0
0
VERTEX
8
0
10
90.31263125000001
20
17.977387500000003
30
0
42
0.17539971942470112
0
VERTEX
8
0
10
90.486125
20
18.37325625
30
0
0
VERTEX
8
0
10
90.48750000000001
20
18.415
30
0
0
VERTEX
8
0
10
90.48750000000001
20
23.495
30
0
0
VERTEX
8
0
10
90.48710625000001
20
23.502962500000002
30
0
0
VERTEX
8
0
10
90.4873
20
23.510921875
30
0
42
0.17540035433691983
0
VERTEX
8
0
10
90.330059375
20
23.913525
30
0
0
VERTEX
8
0
10
90.3015125
20
23.9440125
30
0
0
VERTEX
8
0
10
87.1265125
20
27.1190125
30
0
0
VERTEX
8
0
10
87.12061250000001
20
27.124353125000003
30
0
0
VERTEX
8
0
10
87.11511250000001
20
27.13013125
30
0
42
0.17539971942470112
0
VERTEX
8
0
10
86.71924375
20
27.303625
30
0
0
VERTEX
8
0
10
86.67750000000001
20
27.305
30
0
0
VERTEX
8
0
10
84.98081875
20
27.305
30
0
0
VERTEX
8
0
10
84.9621
20
27.31750625
30
0
42
0.12333848897222142
0
VERTEX
8
0
10
84.611040625
20
27.424000000000003
30
0
0
VERTEX
8
0
10
83.028959375
20
27.424000000000003
30
0
0
VERTEX
8
0
10
82.95523125
20
27.4167375
30
0
42
0.22455735924685885
0
VERTEX
8
0
10
82.41849375000001
20
27.0581
30
0
0
VERTEX
8
0
10
82.38356875000001
20
26.992765625
30
0
0
VERTEX
8
0
10
82.3813875
20
26.9875
30
0
0
VERTEX
8
0
10
82.2325
20
26.9875
30
0
42
0.18186953901420325
0
VERTEX
8
0
10
81.813975
20
26.830059375
30
0
0
VERTEX
8
0
10
81.7834875
20
26.8015125
30
0
0
VERTEX
8
0
10
74.66697500000001
20
19.685000000000002
30
0
0
VERTEX
8
0
10
71.12
20
19.685000000000002
30
0
0
VERTEX
8
0
10
71.0571
20
19.681878125
30
0
42
0.9207235343935894
0
VERTEX
8
0
10
71.07825625000001
20
18.416375000000002
30
0
0
VERTEX
8
0
10
71.12
20
18.415
30
0
0
VERTEX
8
0
10
74.93
20
18.415
30
0
0
VERTEX
8
0
10
74.9379625
20
18.41539375
30
0
0
VERTEX
8
0
10
74.94592187500001
20
18.415200000000002
30
0
42
0.17540035433691983
0
VERTEX
8
0
10
75.34852500000001
20
18.572440625000002
30
0
0
VERTEX
8
0
10
75.3790125
20
18.600987500000002
30
0
0
VERTEX
8
0
10
82.495525
20
25.7175
30
0
0
VERTEX
8
0
10
83.5025
20
25.7175
30
0
0
VERTEX
8
0
10
83.5104625
20
25.71789375
30
0
0
VERTEX
8
0
10
83.518421875
20
25.7177
30
0
42
0.17540035433691983
0
VERTEX
8
0
10
83.921025
20
25.874940625
30
0
0
VERTEX
8
0
10
83.9515125
20
25.9034875
30
0
0
VERTEX
8
0
10
83.964025
20
25.916
30
0
0
VERTEX
8
0
10
84.611040625
20
25.916
30
0
0
VERTEX
8
0
10
84.68476875
20
25.9232625
30
0
42
0.09849108090397155
0
VERTEX
8
0
10
84.9621
20
26.022493750000002
30
0
0
VERTEX
8
0
10
84.98081875
20
26.035
30
0
0
VERTEX
8
0
10
86.41447500000001
20
26.035
30
0
0
VERTEX
8
0
10
89.2175
20
23.231975000000002
30
0
0
VERTEX
8
0
10
89.2175
20
18.678025
30
0
0
VERTEX
8
0
10
84.50947500000001
20
13.97
30
0
0
VERTEX
8
0
10
84.455
20
13.97
30
0
42
0.18186953901420325
0
VERTEX
8
0
10
84.03647500000001
20
13.812559375000001
30
0
0
VERTEX
8
0
10
84.0059875
20
13.784012500000001
30
0
0
VERTEX
8
0
10
83.582375
20
13.3604
30
0
0
VERTEX
8
0
10
83.54645625
20
13.3604
30
0
0
VERTEX
8
0
10
83.1596
20
12.973543750000001
30
0
0
VERTEX
8
0
10
83.1596
20
12.426456250000001
30
0
0
VERTEX
8
0
10
83.54645625
20
12.0396
30
0
0
VERTEX
8
0
10
84.09354375000001
20
12.0396
30
0
0
SEQEND
0
POLYLINE
66
1
8
1_copper
10
0.0
20
0.0
30
0.0
70
1
0
VERTEX
8
0
10
69.96076875
20
48.0292625
30
0
42
0.3578058410891132
0
VERTEX
8
0
10
70.604
20
48.738959375
30
0
0
VERTEX
8
0
10
70.604
20
50.321040625
30
0
0
VERTEX
8
0
10
70.5967375
20
50.394768750000004
30
0
42
0.906347362423788
0
VERTEX
8
0
10
69.096
20
50.321040625
30
0
0
VERTEX
8
0
10
69.096
20
48.738959375
30
0
0
VERTEX
8
0
10
69.1032625
20
48.665231250000005
30
0
42
0.38574191329236746
0
VERTEX
8
0
10
69.887040625
20
48.022000000000006
30
0
0
SEQEND
0
POLYLINE
66
1
8
1_copper
10
0.0
20
0.0
30
0.0
70
1
0
VERTEX
8
0
10
46.744
20
19.804000000000002
30
0
0
VERTEX
8
0
10
45.236000000000004
20
19.804000000000002
30
0
0
VERTEX
8
0
10
45.236000000000004
20
18.296
30
0
0
VERTEX
8
0
10
46.744
20
18.296
30
0
0
SEQEND
0
POLYLINE
66
1
8
16_copper
10
0.0
20
0.0
30
0.0
70
1
0
VERTEX
8
0
10
55.9429
20
13.338121875
30
0
42
0.9207235343935894
0
VERTEX
8
0
10
55.921743750000005
20
14.603625000000001
30
0
0
VERTEX
8
0
10
55.88
20
14.605
30
0
0
VERTEX
8
0
10
53.367075
20
14.605
30
0
0
VERTEX
8
0
10
48.9890625
20
18.9830125
30
0
0
VERTEX
8
0
10
48.9831625
20
18.988353125
30
0
0
VERTEX
8
0
10
48.9776625
20
18.994131250000002
30
0
42
0.17539971942470112
0
VERTEX
8
0
10
48.58179375
20
19.167625
30
0
0
VERTEX
8
0
10
48.54005
20
19.169
30
0
0
VERTEX
8
0
10
46.769025
20
19.169
30
0
0
VERTEX
8
0
10
46.744
20
19.194025
30
0
0
VERTEX
8
0
10
46.744
20
19.804000000000002
30
0
0
VERTEX
8
0
10
45.236000000000004
20
19.804000000000002
30
0
0
VERTEX
8
0
10
45.236000000000004
20
19.797025
30
0
0
VERTEX
8
0
10
38.417500000000004
20
26.615525
30
0
0
VERTEX
8
0
10
38.417500000000004
20
46.409475
30
0
0
VERTEX
8
0
10
43.760525
20
51.752500000000005
30
0
0
VERTEX
8
0
10
67.999475
20
51.752500000000005
30
0
0
VERTEX
8
0
10
68.89750000000001
20
50.854475
30
0
0
VERTEX
8
0
10
68.89750000000001
20
49.847500000000004
30
0
0
VERTEX
8
0
10
68.89789375000001
20
49.839537500000006
30
0
0
VERTEX
8
0
10
68.8977
20
49.831578125
30
0
42
0.17540035433691983
0
VERTEX
8
0
10
69.054940625
20
49.428975
30
0
0
VERTEX
8
0
10
69.0834875
20
49.3984875
30
0
0
VERTEX
8
0
10
69.096
20
49.385975
30
0
0
VERTEX
8
0
10
69.096
20
48.738959375
30
0
0
VERTEX
8
0
10
69.1032625
20
48.665231250000005
30
0
42
0.906347362423788
0
VERTEX
8
0
10
70.604
20
48.738959375
30
0
0
VERTEX
8
0
10
70.604
20
48.895
30
0
0
VERTEX
8
0
10
75.936975
20
48.895
30
0
0
VERTEX
8
0
10
77.0209875
20
47.8109875
30
0
0
VERTEX
8
0
10
77.0268875
20
47.805646875
30
0
0
VERTEX
8
0
10
77.0323875
20
47.79986875
30
0
42
0.17539971942470112
0
VERTEX
8
0
10
77.42825625
20
47.626375
30
0
0
VERTEX
8
0
10
77.47
20
47.625
30
0
0
VERTEX
8
0
10
78.74000000000001
20
47.625
30
0
0
VERTEX
8
0
10
78.80290000000001
20
47.628121875000005
30
0
42
0.9207235343935894
0
VERTEX
8
0
10
78.78174375
20
48.893625
30
0
0
VERTEX
8
0
10
78.74000000000001
20
48.895
30
0
0
VERTEX
8
0
10
77.733025
20
48.895
30
0
0
VERTEX
8
0
10
76.6490125
20
49.9790125
30
0
0
VERTEX
8
0
10
76.6431125
20
49.984353125000005
30
0
0
VERTEX
8
0
10
76.6376125
20
49.990131250000005
30
0
42
0.17539971942470112
0
VERTEX
8
0
10
76.24174375
20
50.163625
30
0
0
VERTEX
8
0
10
76.2
20
50.165
30
0
0
VERTEX
8
0
10
70.604
20
50.165
30
0
0
VERTEX
8
0
10
70.604
20
50.321040625
30
0
42
0.2504874124271429
0
VERTEX
8
0
10
70.2381
20
50.931506250000005
30
0
0
VERTEX
8
0
10
70.172765625
20
50.96643125
30
0
0
VERTEX
8
0
10
70.1675
20
50.9686125
30
0
0
VERTEX
8
0
10
70.1675
20
51.1175
30
0
42
0.18186953901420325
0
VERTEX
8
0
10
70.010059375
20
51.536025
30
0
0
VERTEX
8
0
10
69.98151250000001
20
51.5665125
30
0
0
VERTEX
8
0
10
68.7115125
20
52.836512500000005
30
0
0
VERTEX
8
0
10
68.7056125
20
52.841853125
30
0
0
VERTEX
8
0
10
68.7001125
20
52.84763125
30
0
42
0.17539971942470112
0
VERTEX
8
0
10
68.30424375
20
53.021125000000005
30
0
0
VERTEX
8
0
10
68.2625
20
53.0225
30
0
0
VERTEX
8
0
10
43.4975
20
53.0225
30
0
0
VERTEX
8
0
10
43.489537500000004
20
53.02210625
30
0
0
VERTEX
8
0
10
43.481578125
20
53.0223
30
0
42
0.17540035433691983
0
VERTEX
8
0
10
43.078975
20
52.865059375
30
0
0
VERTEX
8
0
10
43.0484875
20
52.836512500000005
30
0
0
VERTEX
8
0
10
37.333487500000004
20
47.1215125
30
0
0
VERTEX
8
0
10
37.328146875
20
47.115612500000005
30
0
0
VERTEX
8
0
10
37.32236875
20
47.1101125
30
0
42
0.17539971942470112
0
VERTEX
8
0
10
37.148875000000004
20
46.71424375
30
0
0
VERTEX
8
0
10
37.1475
20
46.6725
30
0
0
VERTEX
8
0
10
37.1475
20
26.352500000000003
30
0
0
VERTEX
8
0
10
37.14789375
20
26.3445375
30
0
0
VERTEX
8
0
10
37.1477
20
26.336578125000003
30
0
42
0.17540035433691983
0
VERTEX
8
0
10
37.304940625
20
25.933975
30
0
0
VERTEX
8
0
10
37.333487500000004
20
25.9034875
30
0
0
VERTEX
8
0
10
44.6359875
20
18.600987500000002
30
0
0
VERTEX
8
0
10
44.6418875
20
18.595646875
30
0
0
VERTEX
8
0
10
44.6473875
20
18.58986875
30
0
42
0.17539971942470112
0
VERTEX
8
0
10
45.04325625
20
18.416375000000002
30
0
0
VERTEX
8
0
10
45.085
20
18.415
30
0
0
VERTEX
8
0
10
45.236000000000004
20
18.415
30
0
0
VERTEX
8
0
10
45.236000000000004
20
18.296
30
0
0
VERTEX
8
0
10
45.845975
20
18.296
30
0
0
VERTEX
8
0
10
46.056987500000005
20
18.0849875
30
0
0
VERTEX
8
0
10
46.0628875
20
18.079646875
30
0
0
VERTEX
8
0
10
46.0683875
20
18.073868750000003
30
0
42
0.17539971942470112
0
VERTEX
8
0
10
46.464256250000005
20
17.900375
30
0
0
VERTEX
8
0
10
46.506
20
17.899
30
0
0
VERTEX
8
0
10
48.277025
20
17.899
30
0
0
VERTEX
8
0
10
52.655037500000006
20
13.5209875
30
0
0
VERTEX
8
0
10
52.6609375
20
13.515646875
30
0
0
VERTEX
8
0
10
52.6664375
20
13.50986875
30
0
42
0.17539971942470112
0
VERTEX
8
0
10
53.062306250000006
20
13.336375
30
0
0
VERTEX
8
0
10
53.10405
20
13.335
30
0
0
VERTEX
8
0
10
55.88
20
13.335
30
0
0
SEQEND
0
POLYLINE
66
1
8
1_copper
10
0.0
20
0.0
30
0.0
70
1
0
VERTEX
8
0
10
67.42076875000001
20
48.0292625
30
0
42
0.3578058410891132
0
VERTEX
8
0
10
68.06400000000001
20
48.738959375
30
0
0
VERTEX
8
0
10
68.06400000000001
20
50.321040625
30
0
0
VERTEX
8
0
10
68.0567375
20
50.394768750000004
30
0
42
0.906347362423788
0
VERTEX
8
0
10
66.556
20
50.321040625
30
0
0
VERTEX
8
0
10
66.556
20
48.738959375
30
0
0
VERTEX
8
0
10
66.56326250000001
20
48.665231250000005
30
0
42
0.38574191329236746
0
VERTEX
8
0
10
67.347040625
20
48.022000000000006
30
0
0
SEQEND
0
POLYLINE
66
1
8
16_copper
10
0.0
20
0.0
30
0.0
70
1
0
VERTEX
8
0
10
71.19872500000001
20
26.039900000000003
30
0
42
0.1499377984765868
0
VERTEX
8
0
10
71.538525
20
26.192440625
30
0
0
VERTEX
8
0
10
71.5690125
20
26.2209875
30
0
0
VERTEX
8
0
10
71.71322500000001
20
26.3652
30
0
0
VERTEX
8
0
10
72.03533125
20
26.3652
30
0
0
VERTEX
8
0
10
72.04329375
20
26.365593750000002
30
0
0
VERTEX
8
0
10
72.051253125
20
26.3654
30
0
42
0.17540035433691983
0
VERTEX
8
0
10
72.45385625
20
26.522640625
30
0
0
VERTEX
8
0
10
72.48434375000001
20
26.5511875
30
0
0
VERTEX
8
0
10
78.31815625
20
32.385
30
0
0
VERTEX
8
0
10
78.74000000000001
20
32.385
30
0
0
VERTEX
8
0
10
78.7479625
20
32.38539375
30
0
0
VERTEX
8
0
10
78.755921875
20
32.385200000000005
30
0
42
0.17540035433691983
0
VERTEX
8
0
10
79.158525
20
32.542440625000005
30
0
0
VERTEX
8
0
10
79.1890125
20
32.5709875
30
0
0
VERTEX
8
0
10
82.9990125
20
36.3809875
30
0
0
VERTEX
8
0
10
83.00435312500001
20
36.3868875
30
0
0
VERTEX
8
0
10
83.01013125
20
36.392387500000005
30
0
42
0.17539971942470112
0
VERTEX
8
0
10
83.183625
20
36.78825625
30
0
0
VERTEX
8
0
10
83.185
20
36.83
30
0
0
VERTEX
8
0
10
83.185
20
40.64
30
0
0
VERTEX
8
0
10
83.18460625
20
40.6479625
30
0
0
VERTEX
8
0
10
83.18480000000001
20
40.655921875000004
30
0
42
0.17540035433691983
0
VERTEX
8
0
10
83.02755937500001
20
41.058525
30
0
0
VERTEX
8
0
10
82.9990125
20
41.0890125
30
0
0
VERTEX
8
0
10
81.72901250000001
20
42.3590125
30
0
0
VERTEX
8
0
10
81.7231125
20
42.364353125
30
0
0
VERTEX
8
0
10
81.7176125
20
42.37013125
30
0
42
0.17539971942470112
0
VERTEX
8
0
10
81.32174375000001
20
42.543625
30
0
0
VERTEX
8
0
10
81.28
20
42.545
30
0
0
VERTEX
8
0
10
76.2
20
42.545
30
0
0
VERTEX
8
0
10
76.1920375
20
42.54460625
30
0
0
VERTEX
8
0
10
76.184078125
20
42.5448
30
0
42
0.17540035433691983
0
VERTEX
8
0
10
75.781475
20
42.387559375
30
0
0
VERTEX
8
0
10
75.75098750000001
20
42.3590125
30
0
0
VERTEX
8
0
10
70.856975
20
37.465
30
0
0
VERTEX
8
0
10
67.6275
20
37.465
30
0
0
VERTEX
8
0
10
67.6275
20
48.0913875
30
0
0
VERTEX
8
0
10
67.632765625
20
48.09356875
30
0
42
0.2767377358232775
0
VERTEX
8
0
10
68.06400000000001
20
48.738959375
30
0
0
VERTEX
8
0
10
68.06400000000001
20
50.321040625
30
0
0
VERTEX
8
0
10
68.0567375
20
50.394768750000004
30
0
42
0.906347362423788
0
VERTEX
8
0
10
66.556
20
50.321040625
30
0
0
VERTEX
8
0
10
66.556
20
49.674025
30
0
0
VERTEX
8
0
10
66.5434875
20
49.6615125
30
0
42
0.18186941841848478
0
VERTEX
8
0
10
66.358875
20
49.25424375
30
0
0
VERTEX
8
0
10
66.3575
20
49.212500000000006
30
0
0
VERTEX
8
0
10
66.3575
20
36.83
30
0
0
VERTEX
8
0
10
66.3577625
20
36.824690625
30
0
0
VERTEX
8
0
10
66.35758750000001
20
36.819384375
30
0
42
0.39025002331004527
0
VERTEX
8
0
10
66.95075625
20
36.196375
30
0
0
VERTEX
8
0
10
66.9925
20
36.195
30
0
0
VERTEX
8
0
10
71.12
20
36.195
30
0
0
VERTEX
8
0
10
71.12796250000001
20
36.19539375
30
0
0
VERTEX
8
0
10
71.13592187500001
20
36.1952
30
0
42
0.17540035433691983
0
VERTEX
8
0
10
71.538525
20
36.352440625
30
0
0
VERTEX
8
0
10
71.5690125
20
36.3809875
30
0
0
VERTEX
8
0
10
76.463025
20
41.275
30
0
0
VERTEX
8
0
10
81.016975
20
41.275
30
0
0
VERTEX
8
0
10
81.915
20
40.376975
30
0
0
VERTEX
8
0
10
81.915
20
37.093025000000004
30
0
0
VERTEX
8
0
10
78.47697500000001
20
33.655
30
0
0
VERTEX
8
0
10
78.05513125
20
33.655
30
0
0
VERTEX
8
0
10
78.04716875
20
33.65460625
30
0
0
VERTEX
8
0
10
78.039209375
20
33.6548
30
0
42
0.17540035433691983
0
VERTEX
8
0
10
77.63660625
20
33.497559375
30
0
0
VERTEX
8
0
10
77.60611875000001
20
33.4690125
30
0
0
VERTEX
8
0
10
71.77230625
20
27.6352
30
0
0
VERTEX
8
0
10
71.45020000000001
20
27.6352
30
0
0
VERTEX
8
0
10
71.4422375
20
27.63480625
30
0
0
VERTEX
8
0
10
71.434278125
20
27.635
30
0
42
0.17540035433691983
0
VERTEX
8
0
10
71.031675
20
27.477759375
30
0
0
VERTEX
8
0
10
71.0011875
20
27.4492125
30
0
0
VERTEX
8
0
10
70.67098750000001
20
27.1190125
30
0
0
VERTEX
8
0
10
70.62871875
20
27.072328125000002
30
0
42
0.6416933156496358
0
VERTEX
8
0
10
71.13592187500001
20
26.0352
30
0
0
SEQEND
0
POLYLINE
66
1
8
1_copper
10
0.0
20
0.0
30
0.0
70
1
0
VERTEX
8
0
10
64.88076875
20
48.0292625
30
0
42
0.3578058410891132
0
VERTEX
8
0
10
65.524
20
48.738959375
30
0
0
VERTEX
8
0
10
65.524
20
50.321040625
30
0
0
VERTEX
8
0
10
65.5167375
20
50.394768750000004
30
0
42
0.906347362423788
0
VERTEX
8
0
10
64.016
20
50.321040625
30
0
0
VERTEX
8
0
10
64.016
20
48.738959375
30
0
0
VERTEX
8
0
10
64.0232625
20
48.665231250000005
30
0
42
0.38574191329236746
0
VERTEX
8
0
10
64.807040625
20
48.022000000000006
30
0
0
SEQEND
0
POLYLINE
66
1
8
16_copper
10
0.0
20
0.0
30
0.0
70
1
0
VERTEX
8
0
10
71.1829
20
28.578121875
30
0
42
0.9207235343935894
0
VERTEX
8
0
10
71.16174375
20
29.843625000000003
30
0
0
VERTEX
8
0
10
71.12
20
29.845000000000002
30
0
0
VERTEX
8
0
10
70.748025
20
29.845000000000002
30
0
0
VERTEX
8
0
10
64.4525
20
36.140525000000004
30
0
0
VERTEX
8
0
10
64.4525
20
41.011975
30
0
0
VERTEX
8
0
10
65.2190125
20
41.778487500000004
30
0
0
VERTEX
8
0
10
65.22435312500001
20
41.7843875
30
0
0
VERTEX
8
0
10
65.23013125
20
41.7898875
30
0
42
0.17539971942470112
0
VERTEX
8
0
10
65.403625
20
42.185756250000004
30
0
0
VERTEX
8
0
10
65.405
20
42.2275
30
0
0
VERTEX
8
0
10
65.405
20
48.369181250000004
30
0
0
VERTEX
8
0
10
65.41750625
20
48.3879
30
0
42
0.12333848897222142
0
VERTEX
8
0
10
65.524
20
48.738959375
30
0
0
VERTEX
8
0
10
65.524
20
50.321040625
30
0
0
VERTEX
8
0
10
65.5167375
20
50.394768750000004
30
0
42
0.906347362423788
0
VERTEX
8
0
10
64.016
20
50.321040625
30
0
0
VERTEX
8
0
10
64.016
20
48.738959375
30
0
0
VERTEX
8
0
10
64.0232625
20
48.665231250000005
30
0
42
0.09849108090397155
0
VERTEX
8
0
10
64.12249375
20
48.3879
30
0
0
VERTEX
8
0
10
64.135
20
48.369181250000004
30
0
0
VERTEX
8
0
10
64.135
20
42.490525000000005
30
0
0
VERTEX
8
0
10
63.3684875
20
41.7240125
30
0
0
VERTEX
8
0
10
63.363146875000005
20
41.718112500000004
30
0
0
VERTEX
8
0
10
63.357368750000006
20
41.7126125
30
0
42
0.17539971942470112
0
VERTEX
8
0
10
63.183875
20
41.31674375
30
0
0
VERTEX
8
0
10
63.182500000000005
20
41.275
30
0
0
VERTEX
8
0
10
63.182500000000005
20
35.877500000000005
30
0
0
VERTEX
8
0
10
63.182893750000005
20
35.8695375
30
0
0
VERTEX
8
0
10
63.182700000000004
20
35.861578125
30
0
42
0.17540035433691983
0
VERTEX
8
0
10
63.339940625000004
20
35.458975
30
0
0
VERTEX
8
0
10
63.3684875
20
35.4284875
30
0
0
VERTEX
8
0
10
70.0359875
20
28.760987500000002
30
0
0
VERTEX
8
0
10
70.0418875
20
28.755646875
30
0
0
VERTEX
8
0
10
70.0473875
20
28.74986875
30
0
42
0.17539971942470112
0
VERTEX
8
0
10
70.44325625
20
28.576375000000002
30
0
0
VERTEX
8
0
10
70.485
20
28.575000000000003
30
0
0
VERTEX
8
0
10
71.12
20
28.575000000000003
30
0
0
SEQEND
0
POLYLINE
66
1
8
1_copper
10
0.0
20
0.0
30
0.0
70
1
0
VERTEX
8
0
10
59.80076875
20
48.0292625
30
0
42
0.3578058410891132
0
VERTEX
8
0
10
60.444
20
48.738959375
30
0
0
VERTEX
8
0
10
60.444
20
50.321040625
30
0
0
VERTEX
8
0
10
60.4367375
20
50.394768750000004
30
0
42
0.906347362423788
0
VERTEX
8
0
10
58.936
20
50.321040625
30
0
0
VERTEX
8
0
10
58.936
20
48.738959375
30
0
0
VERTEX
8
0
10
58.9432625
20
48.665231250000005
30
0
42
0.38574191329236746
0
VERTEX
8
0
10
59.727040625
20
48.022000000000006
30
0
0
SEQEND
0
POLYLINE
66
1
8
1_copper
10
0.0
20
0.0
30
0.0
70
1
0
VERTEX
8
0
10
51.4604
20
40.36645625
30
0
0
VERTEX
8
0
10
51.4604
20
40.91354375
30
0
0
VERTEX
8
0
10
51.07354375
20
41.3004
30
0
0
VERTEX
8
0
10
50.52645625
20
41.3004
30
0
0
VERTEX
8
0
10
50.1396
20
40.91354375
30
0
0
VERTEX
8
0
10
50.1396
20
40.36645625
30
0
0
VERTEX
8
0
10
50.52645625
20
39.979600000000005
30
0
0
VERTEX
8
0
10
51.07354375
20
39.979600000000005
30
0
0
SEQEND
0
POLYLINE
66
1
8
16_copper
10
0.0
20
0.0
30
0.0
70
1
0
VERTEX
8
0
10
51.4604
20
40.36645625
30
0
0
VERTEX
8
0
10
51.4604
20
40.91354375
30
0
0
VERTEX
8
0
10
51.435
20
40.93894375
30
0
0
VERTEX
8
0
10
51.435
20
46.726975
30
0
0
VERTEX
8
0
10
53.603025
20
48.895
30
0
0
VERTEX
8
0
10
58.936
20
48.895
30
0
0
VERTEX
8
0
10
58.936
20
48.738959375
30
0
42
0.952080432763622
0
VERTEX
8
0
10
60.444
20
48.738959375
30
0
0
VERTEX
8
0
10
60.444
20
50.321040625
30
0
0
VERTEX
8
0
10
60.4367375
20
50.394768750000004
30
0
42
0.906347362423788
0
VERTEX
8
0
10
58.936
20
50.321040625
30
0
0
VERTEX
8
0
10
58.936
20
50.165
30
0
0
VERTEX
8
0
10
53.34
20
50.165
30
0
0
VERTEX
8
0
10
53.332037500000006
20
50.164606250000006
30
0
0
VERTEX
8
0
10
53.324078125
20
50.1648
30
0
42
0.17540035433691983
0
VERTEX
8
0
10
52.921475
20
50.007559375
30
0
0
VERTEX
8
0
10
52.8909875
20
49.9790125
30
0
0
VERTEX
8
0
10
50.3509875
20
47.439012500000004
30
0
0
VERTEX
8
0
10
50.345646875
20
47.4331125
30
0
0
VERTEX
8
0
10
50.33986875
20
47.4276125
30
0
42
0.17539971942470112
0
VERTEX
8
0
10
50.166375
20
47.031743750000004
30
0
0
VERTEX
8
0
10
50.165
20
46.99
30
0
0
VERTEX
8
0
10
50.165
20
40.93894375
30
0
0
VERTEX
8
0
10
50.1396
20
40.91354375
30
0
0
VERTEX
8
0
10
50.1396
20
40.36645625
30
0
0
VERTEX
8
0
10
50.52645625
20
39.979600000000005
30
0
0
VERTEX
8
0
10
51.07354375
20
39.979600000000005
30
0
0
SEQEND
0
POLYLINE
66
1
8
1_copper
10
0.0
20
0.0
30
0.0
70
1
0
VERTEX
8
0
10
61.620400000000004
20
40.36645625
30
0
0
VERTEX
8
0
10
61.620400000000004
20
40.91354375
30
0
0
VERTEX
8
0
10
61.23354375
20
41.3004
30
0
0
VERTEX
8
0
10
60.686456250000006
20
41.3004
30
0
0
VERTEX
8
0
10
60.299600000000005
20
40.91354375
30
0
0
VERTEX
8
0
10
60.299600000000005
20
40.36645625
30
0
0
VERTEX
8
0
10
60.686456250000006
20
39.979600000000005
30
0
0
VERTEX
8
0
10
61.23354375
20
39.979600000000005
30
0
0
SEQEND
0
POLYLINE
66
1
8
16_copper
10
0.0
20
0.0
30
0.0
70
1
0
VERTEX
8
0
10
71.1829
20
20.958121875
30
0
42
0.9207235343935894
0
VERTEX
8
0
10
71.16174375
20
22.223625000000002
30
0
0
VERTEX
8
0
10
71.12
20
22.225
30
0
0
VERTEX
8
0
10
70.748025
20
22.225
30
0
0
VERTEX
8
0
10
69.5325
20
23.440525
30
0
0
VERTEX
8
0
10
69.5325
20
25.400000000000002
30
0
0
VERTEX
8
0
10
69.53210625
20
25.4079625
30
0
0
VERTEX
8
0
10
69.5323
20
25.415921875000002
30
0
42
0.17540035433691983
0
VERTEX
8
0
10
69.375059375
20
25.818525
30
0
0
VERTEX
8
0
10
69.3465125
20
25.8490125
30
0
0
VERTEX
8
0
10
61.595000000000006
20
33.600525000000005
30
0
0
VERTEX
8
0
10
61.595000000000006
20
40.34105625
30
0
0
VERTEX
8
0
10
61.620400000000004
20
40.36645625
30
0
0
VERTEX
8
0
10
61.620400000000004
20
40.91354375
30
0
0
VERTEX
8
0
10
61.23354375
20
41.3004
30
0
0
VERTEX
8
0
10
60.686456250000006
20
41.3004
30
0
0
VERTEX
8
0
10
60.299600000000005
20
40.91354375
30
0
0
VERTEX
8
0
10
60.299600000000005
20
40.36645625
30
0
0
VERTEX
8
0
10
60.325
20
40.34105625
30
0
0
VERTEX
8
0
10
60.325
20
33.3375
30
0
0
VERTEX
8
0
10
60.32539375
20
33.3295375
30
0
0
VERTEX
8
0
10
60.3252
20
33.321578125
30
0
42
0.17540035433691983
0
VERTEX
8
0
10
60.482440625
20
32.918975
30
0
0
VERTEX
8
0
10
60.510987500000006
20
32.888487500000004
30
0
0
VERTEX
8
0
10
68.2625
20
25.136975
30
0
0
VERTEX
8
0
10
68.2625
20
23.177500000000002
30
0
0
VERTEX
8
0
10
68.26289375
20
23.1695375
30
0
0
VERTEX
8
0
10
68.26270000000001
20
23.161578125000002
30
0
42
0.17540035433691983
0
VERTEX
8
0
10
68.41994062500001
20
22.758975
30
0
0
VERTEX
8
0
10
68.4484875
20
22.7284875
30
0
0
VERTEX
8
0
10
70.0359875
20
21.1409875
30
0
0
VERTEX
8
0
10
70.0418875
20
21.135646875000003
30
0
0
VERTEX
8
0
10
70.0473875
20
21.12986875
30
0
42
0.17539971942470112
0
VERTEX
8
0
10
70.44325625
20
20.956375
30
0
0
VERTEX
8
0
10
70.485
20
20.955000000000002
30
0
0
VERTEX
8
0
10
71.12
20
20.955000000000002
30
0
0
SEQEND
0
POLYLINE
66
1
8
1_copper
10
0.0
20
0.0
30
0.0
70
1
0
VERTEX
8
0
10
79.54010000000001
20
54.140100000000004
30
0
0
VERTEX
8
0
10
77.93990000000001
20
54.140100000000004
30
0
0
VERTEX
8
0
10
77.93990000000001
20
52.5399
30
0
0
VERTEX
8
0
10
79.54010000000001
20
52.5399
30
0
0
SEQEND
0
POLYLINE
66
1
8
1_copper
10
0.0
20
0.0
30
0.0
70
1
0
VERTEX
8
0
10
96.63076875
20
28.9792625
30
0
42
0.3578058410891132
0
VERTEX
8
0
10
97.274
20
29.688959375000003
30
0
0
VERTEX
8
0
10
97.274
20
31.271040625
30
0
0
VERTEX
8
0
10
97.2667375
20
31.34476875
30
0
42
0.906347362423788
0
VERTEX
8
0
10
95.766
20
31.271040625
30
0
0
VERTEX
8
0
10
95.766
20
29.688959375000003
30
0
0
VERTEX
8
0
10
95.7732625
20
29.61523125
30
0
42
0.38574191329236746
0
VERTEX
8
0
10
96.557040625
20
28.972
30
0
0
SEQEND
0
POLYLINE
66
1
8
1_copper
10
0.0
20
0.0
30
0.0
70
1
0
VERTEX
8
0
10
96.63076875
20
18.8192625
30
0
42
0.3578058410891132
0
VERTEX
8
0
10
97.274
20
19.528959375
30
0
0
VERTEX
8
0
10
97.274
20
21.111040625
30
0
0
VERTEX
8
0
10
97.2667375
20
21.18476875
30
0
42
0.906347362423788
0
VERTEX
8
0
10
95.766
20
21.111040625
30
0
0
VERTEX
8
0
10
95.766
20
19.528959375
30
0
0
VERTEX
8
0
10
95.7732625
20
19.45523125
30
0
42
0.38574191329236746
0
VERTEX
8
0
10
96.557040625
20
18.812
30
0
0
SEQEND
0
POLYLINE
66
1
8
1_copper
10
0.0
20
0.0
30
0.0
70
1
0
VERTEX
8
0
10
96.63076875
20
9.9292625
30
0
42
0.3578058410891132
0
VERTEX
8
0
10
97.274
20
10.638959375
30
0
0
VERTEX
8
0
10
97.274
20
12.221040625
30
0
0
VERTEX
8
0
10
97.2667375
20
12.294768750000001
30
0
42
0.906347362423788
0
VERTEX
8
0
10
95.766
20
12.221040625
30
0
0
VERTEX
8
0
10
95.766
20
10.638959375
30
0
0
VERTEX
8
0
10
95.7732625
20
10.56523125
30
0
42
0.38574191329236746
0
VERTEX
8
0
10
96.557040625
20
9.922
30
0
0
SEQEND
0
POLYLINE
66
1
8
16_copper
10
0.0
20
0.0
30
0.0
70
1
0
VERTEX
8
0
10
95.87249375
20
21.4621
30
0
42
0.12333848897222142
0
VERTEX
8
0
10
95.766
20
21.111040625
30
0
0
VERTEX
8
0
10
95.766
20
19.528959375
30
0
0
VERTEX
8
0
10
95.7732625
20
19.45523125
30
0
42
0.09849108090397155
0
VERTEX
8
0
10
95.87249375
20
19.1779
30
0
0
VERTEX
8
0
10
95.885
20
19.15918125
30
0
0
VERTEX
8
0
10
95.885
20
12.59081875
30
0
0
VERTEX
8
0
10
95.87249375
20
12.5721
30
0
42
0.12333848897222142
0
VERTEX
8
0
10
95.766
20
12.221040625
30
0
0
VERTEX
8
0
10
95.766
20
10.638959375
30
0
0
VERTEX
8
0
10
95.7732625
20
10.56523125
30
0
42
0.906347362423788
0
VERTEX
8
0
10
97.274
20
10.638959375
30
0
0
VERTEX
8
0
10
97.274
20
12.221040625
30
0
0
VERTEX
8
0
10
97.2667375
20
12.294768750000001
30
0
42
0.09849108090397155
0
VERTEX
8
0
10
97.16750625
20
12.5721
30
0
0
VERTEX
8
0
10
97.155
20
12.59081875
30
0
0
VERTEX
8
0
10
97.155
20
19.15918125
30
0
0
VERTEX
8
0
10
97.16750625
20
19.1779
30
0
42
0.12333848897222142
0
VERTEX
8
0
10
97.274
20
19.528959375
30
0
0
VERTEX
8
0
10
97.274
20
21.111040625
30
0
0
VERTEX
8
0
10
97.2667375
20
21.18476875
30
0
42
0.09849108090397155
0
VERTEX
8
0
10
97.16750625
20
21.4621
30
0
0
VERTEX
8
0
10
97.155
20
21.48081875
30
0
0
VERTEX
8
0
10
97.155
20
23.8125
30
0
0
VERTEX
8
0
10
98.1075
20
23.8125
30
0
0
VERTEX
8
0
10
98.1154625
20
23.81289375
30
0
0
VERTEX
8
0
10
98.123421875
20
23.8127
30
0
42
0.17540035433691983
0
VERTEX
8
0
10
98.526025
20
23.969940625
30
0
0
VERTEX
8
0
10
98.55651250000001
20
23.9984875
30
0
0
VERTEX
8
0
10
103.0015125
20
28.4434875
30
0
0
VERTEX
8
0
10
103.006853125
20
28.4493875
30
0
0
VERTEX
8
0
10
103.01263125
20
28.4548875
30
0
42
0.17539971942470112
0
VERTEX
8
0
10
103.186125
20
28.85075625
30
0
0
VERTEX
8
0
10
103.1875
20
28.892500000000002
30
0
0
VERTEX
8
0
10
103.1875
20
50.800000000000004
30
0
0
VERTEX
8
0
10
103.18710625
20
50.8079625
30
0
0
VERTEX
8
0
10
103.18730000000001
20
50.815921875
30
0
42
0.17540035433691983
0
VERTEX
8
0
10
103.03005937500001
20
51.218525
30
0
0
VERTEX
8
0
10
103.0015125
20
51.2490125
30
0
0
VERTEX
8
0
10
100.1440125
20
54.1065125
30
0
0
VERTEX
8
0
10
100.1381125
20
54.111853125
30
0
0
VERTEX
8
0
10
100.13261250000001
20
54.11763125
30
0
42
0.17539971942470112
0
VERTEX
8
0
10
99.73674375
20
54.291125
30
0
0
VERTEX
8
0
10
99.69500000000001
20
54.292500000000004
30
0
0
VERTEX
8
0
10
79.0575
20
54.292500000000004
30
0
0
VERTEX
8
0
10
79.0495375
20
54.29210625
30
0
0
VERTEX
8
0
10
79.041578125
20
54.292300000000004
30
0
42
0.16894528411804563
0
VERTEX
8
0
10
78.65108125
20
54.145403125
30
0
0
VERTEX
8
0
10
78.64532187500001
20
54.140100000000004
30
0
0
VERTEX
8
0
10
77.93990000000001
20
54.140100000000004
30
0
0
VERTEX
8
0
10
77.93990000000001
20
52.5399
30
0
0
VERTEX
8
0
10
79.54010000000001
20
52.5399
30
0
0
VERTEX
8
0
10
79.54010000000001
20
53.0225
30
0
0
VERTEX
8
0
10
99.43197500000001
20
53.0225
30
0
0
VERTEX
8
0
10
101.9175
20
50.536975000000005
30
0
0
VERTEX
8
0
10
101.9175
20
29.155525
30
0
0
VERTEX
8
0
10
97.844475
20
25.0825
30
0
0
VERTEX
8
0
10
97.155
20
25.0825
30
0
0
VERTEX
8
0
10
97.155
20
29.31918125
30
0
0
VERTEX
8
0
10
97.16750625
20
29.3379
30
0
42
0.12333848897222142
0
VERTEX
8
0
10
97.274
20
29.688959375000003
30
0
0
VERTEX
8
0
10
97.274
20
31.271040625
30
0
0
VERTEX
8
0
10
97.2667375
20
31.34476875
30
0
42
0.906347362423788
0
VERTEX
8
0
10
95.766
20
31.271040625
30
0
0
VERTEX
8
0
10
95.766
20
29.688959375000003
30
0
0
VERTEX
8
0
10
95.7732625
20
29.61523125
30
0
42
0.09849108090397155
0
VERTEX
8
0
10
95.87249375
20
29.3379
30
0
0
VERTEX
8
0
10
95.885
20
29.31918125
30
0
0
VERTEX
8
0
10
95.885
20
21.48081875
30
0
0
SEQEND
0
CIRCLE
8
drills_NPTH
10
3.81
20
58.42
30
0
40
1.7499968750000001
0
CIRCLE
8
drills_NPTH
10
104.14
20
3.81
30
0
40
1.7499968750000001
0
CIRCLE
8
drills_NPTH
10
3.81
20
3.81
30
0
40
1.7499968750000001
0
CIRCLE
8
drills_NPTH
10
104.14
20
58.42
30
0
40
1.7499968750000001
0
CIRCLE
8
drills_NPTH
10
3.81
20
11.43
30
0
40
1.6500000000000001
0
CIRCLE
8
drills_NPTH
10
3.81
20
44.45
30
0
40
1.6500000000000001
0
CIRCLE
8
drills_NPTH
10
44.45
20
11.43
30
0
40
1.6500000000000001
0
CIRCLE
8
drills_NPTH
10
44.45
20
44.45
30
0
40
1.6500000000000001
0
CIRCLE
8
drills_PTH
10
91.44
20
35.148
30
0
40
0.625
0
CIRCLE
8
drills_PTH
10
88.9
20
35.148
30
0
40
0.625
0
CIRCLE
8
drills_PTH
10
86.36
20
35.148
30
0
40
0.625
0
CIRCLE
8
drills_PTH
10
78.74000000000001
20
48.260000000000005
30
0
40
0.5334
0
CIRCLE
8
drills_PTH
10
78.74000000000001
20
50.800000000000004
30
0
40
0.5334
0
CIRCLE
8
drills_PTH
10
78.74000000000001
20
53.34
30
0
40
0.5334
0
CIRCLE
8
drills_PTH
10
71.12
20
21.59
30
0
40
0.508
0
CIRCLE
8
drills_PTH
10
71.12
20
24.130000000000003
30
0
40
0.508
0
CIRCLE
8
drills_PTH
10
71.12
20
26.67
30
0
40
0.508
0
CIRCLE
8
drills_PTH
10
71.12
20
29.21
30
0
40
0.508
0
CIRCLE
8
drills_PTH
10
71.12
20
31.75
30
0
40
0.508
0
CIRCLE
8
drills_PTH
10
71.12
20
34.29
30
0
40
0.508
0
CIRCLE
8
drills_PTH
10
55.88
20
34.29
30
0
40
0.508
0
CIRCLE
8
drills_PTH
10
55.88
20
31.75
30
0
40
0.508
0
CIRCLE
8
drills_PTH
10
55.88
20
29.21
30
0
40
0.508
0
CIRCLE
8
drills_PTH
10
55.88
20
26.67
30
0
40
0.508
0
CIRCLE
8
drills_PTH
10
55.88
20
24.130000000000003
30
0
40
0.508
0
CIRCLE
8
drills_PTH
10
55.88
20
21.59
30
0
40
0.508
0
CIRCLE
8
drills_PTH
10
55.88
20
19.05
30
0
40
0.508
0
CIRCLE
8
drills_PTH
10
55.88
20
16.51
30
0
40
0.508
0
CIRCLE
8
drills_PTH
10
55.88
20
13.97
30
0
40
0.508
0
CIRCLE
8
drills_PTH
10
55.88
20
11.43
30
0
40
0.508
0
CIRCLE
8
drills_PTH
10
55.88
20
8.89
30
0
40
0.508
0
CIRCLE
8
drills_PTH
10
55.88
20
6.3500000000000005
30
0
40
0.508
0
CIRCLE
8
drills_PTH
10
58.737500000000004
20
28.098750000000003
30
0
40
0.508
0
CIRCLE
8
drills_PTH
10
58.737500000000004
20
25.55875
30
0
40
0.508
0
CIRCLE
8
drills_PTH
10
58.737500000000004
20
15.08125
30
0
40
0.508
0
CIRCLE
8
drills_PTH
10
58.737500000000004
20
17.62125
30
0
40
0.508
0
CIRCLE
8
drills_PTH
10
69.85000000000001
20
3.81
30
0
40
0.508
0
CIRCLE
8
drills_PTH
10
67.31
20
3.81
30
0
40
0.508
0
CIRCLE
8
drills_PTH
10
64.77
20
3.81
30
0
40
0.508
0
CIRCLE
8
drills_PTH
10
62.230000000000004
20
3.81
30
0
40
0.508
0
CIRCLE
8
drills_PTH
10
59.690000000000005
20
3.81
30
0
40
0.508
0
CIRCLE
8
drills_PTH
10
57.150000000000006
20
3.81
30
0
40
0.508
0
CIRCLE
8
drills_PTH
10
71.12
20
6.3500000000000005
30
0
40
0.508
0
CIRCLE
8
drills_PTH
10
71.12
20
8.89
30
0
40
0.508
0
CIRCLE
8
drills_PTH
10
71.12
20
11.43
30
0
40
0.508
0
CIRCLE
8
drills_PTH
10
71.12
20
13.97
30
0
40
0.508
0
CIRCLE
8
drills_PTH
10
71.12
20
16.51
30
0
40
0.508
0
CIRCLE
8
drills_PTH
10
71.12
20
19.05
30
0
40
0.508
0
CIRCLE
8
drills_PTH
10
45.99
20
36.83
30
0
40
0.5
0
CIRCLE
8
drills_PTH
10
45.99
20
39.370000000000005
30
0
40
0.5
0
CIRCLE
8
drills_PTH
10
45.99
20
26.67
30
0
40
0.5
0
CIRCLE
8
drills_PTH
10
45.99
20
21.59
30
0
40
0.5
0
CIRCLE
8
drills_PTH
10
45.99
20
19.05
30
0
40
0.5
0
CIRCLE
8
drills_PTH
10
45.99
20
16.51
30
0
40
0.5
0
CIRCLE
8
drills_PTH
10
45.99
20
24.130000000000003
30
0
40
0.5
0
CIRCLE
8
drills_PTH
10
83.82000000000001
20
21.59
30
0
40
0.5
0
CIRCLE
8
drills_PTH
10
83.82000000000001
20
24.130000000000003
30
0
40
0.5
0
CIRCLE
8
drills_PTH
10
45.99
20
34.29
30
0
40
0.5
0
CIRCLE
8
drills_PTH
10
45.99
20
31.75
30
0
40
0.5
0
CIRCLE
8
drills_PTH
10
45.99
20
29.21
30
0
40
0.5
0
CIRCLE
8
drills_PTH
10
83.82000000000001
20
26.67
30
0
40
0.5
0
CIRCLE
8
drills_PTH
10
69.85000000000001
20
49.53
30
0
40
0.5
0
CIRCLE
8
drills_PTH
10
67.31
20
49.53
30
0
40
0.5
0
CIRCLE
8
drills_PTH
10
64.77
20
49.53
30
0
40
0.5
0
CIRCLE
8
drills_PTH
10
91.72
20
48.260000000000005
30
0
40
0.5
0
CIRCLE
8
drills_PTH
10
96.52000000000001
20
51.260000000000005
30
0
40
0.5
0
CIRCLE
8
drills_PTH
10
96.52000000000001
20
45.160000000000004
30
0
40
0.5
0
CIRCLE
8
drills_PTH
10
62.230000000000004
20
49.53
30
0
40
0.5
0
CIRCLE
8
drills_PTH
10
59.690000000000005
20
49.53
30
0
40
0.5
0
CIRCLE
8
drills_PTH
10
99.06
20
30.48
30
0
40
0.5
0
CIRCLE
8
drills_PTH
10
96.52000000000001
20
30.48
30
0
40
0.5
0
CIRCLE
8
drills_PTH
10
96.52000000000001
20
20.32
30
0
40
0.5
0
CIRCLE
8
drills_PTH
10
99.06
20
20.32
30
0
40
0.5
0
CIRCLE
8
drills_PTH
10
96.52000000000001
20
11.43
30
0
40
0.5
0
CIRCLE
8
drills_PTH
10
99.06
20
11.43
30
0
40
0.5
0
CIRCLE
8
drills_PTH
10
60.96
20
40.64
30
0
40
0.40640000000000004
0
CIRCLE
8
drills_PTH
10
50.800000000000004
20
40.64
30
0
40
0.40640000000000004
0
CIRCLE
8
drills_PTH
10
83.82000000000001
20
12.700000000000001
30
0
40
0.40640000000000004
0
CIRCLE
8
drills_PTH
10
83.82000000000001
20
15.24
30
0
40
0.40640000000000004
0
CIRCLE
8
drills_PTH
10
82.55
20
5.08
30
0
40
0.40640000000000004
0
CIRCLE
8
drills_PTH
10
85.09
20
5.08
30
0
40
0.40640000000000004
0
CIRCLE
8
drills_PTH
10
80.01
20
39.370000000000005
30
0
40
0.40640000000000004
0
CIRCLE
8
drills_PTH
10
69.85000000000001
20
39.370000000000005
30
0
40
0.40640000000000004
0
ENDSEC
0
EOF